<?xml version="1.0" encoding="utf-8"?>
<!-- Generator: Adobe Illustrator 15.0.0, SVG Export Plug-In . SVG Version: 6.00 Build 0)  -->
<!DOCTYPE svg PUBLIC "-//W3C//DTD SVG 1.1//EN" "http://www.w3.org/Graphics/SVG/1.1/DTD/svg11.dtd">
<svg version="1.1" id="Layer_1" xmlns="http://www.w3.org/2000/svg" xmlns:xlink="http://www.w3.org/1999/xlink" x="0px" y="0px"
	 width="35px" height="30.594px" viewBox="0 0 35 30.594" enable-background="new 0 0 35 30.594" xml:space="preserve">
<g>
	<path fill="#FF0000" d="M34.791,28.875L18.432,0.54C18.239,0.206,17.882,0,17.496,0s-0.743,0.206-0.936,0.54L0.145,28.973
		c-0.193,0.334-0.193,0.746,0,1.08c0.193,0.334,0.55,0.541,0.936,0.541h32.832h0.007c0.597,0,1.081-0.484,1.081-1.081
		C35,29.275,34.923,29.054,34.791,28.875z M2.952,28.433L17.496,3.241L32.04,28.433H2.952z"/>
	<path fill="#FF0000" d="M15.794,11.008v2.629l0.899,6.434c0.022,0.184,0.229,0.369,0.438,0.369h0.738
		c0.207,0,0.414-0.186,0.438-0.369l0.898-6.48v-2.583c0-0.231-0.207-0.438-0.438-0.438h-2.536
		C16.001,10.571,15.794,10.777,15.794,11.008z"/>
	<path fill="#FF0000" d="M17.477,23.137c-1.014,0-1.868,0.877-1.868,1.914s0.854,1.891,1.868,1.891c1.062,0,1.914-0.854,1.914-1.891
		S18.538,23.137,17.477,23.137z"/>
</g>
</svg>
