<?xml version="1.0" encoding="UTF-8" standalone="no"?>
<!DOCTYPE svg  PUBLIC '-//W3C//DTD SVG 1.1//EN'  'http://www.w3.org/Graphics/SVG/1.1/DTD/svg11.dtd'>
<svg xmlns="http://www.w3.org/2000/svg">
<defs>
<font id="input_14344305569203-Regular" horiz-adv-x="2048">
<font-face underline-position="-256" font-weight="400" descent="-410" panose-1="2 1 6 9 0 1 1 1 1 1" units-per-em="2048" unicode-range="U+0020-22A5" bbox="-85 -398 2048 1629" x-height="949" underline-thickness="102" font-family="input_14344305569203" ascent="1638" cap-height="1275"/>
<missing-glyph/>
<glyph glyph-name=".notdef"/>
<glyph glyph-name="glyph1" horiz-adv-x="0"/>
<glyph glyph-name="glyph1" horiz-adv-x="0"/>
<glyph glyph-name="glyph2"/>
<glyph glyph-name="space" horiz-adv-x="1024" unicode=" "/>
<glyph glyph-name="exclam" horiz-adv-x="552" unicode="!" d="M278 -74q25 -2 52 -14.5t42.5 -37.5t15.5 -56q0 -28 -14 -49q-15 -23 -41.5 -37t-55.5 -14h-4q-28 0 -53 13.5t-39 36t-14 45t4 38.5q6 22 22.5 40.5t38 27t46.5 7.5zM293 92h-39q-8 132 -17.5 276.5t-36.5 393t-30 304.5t-3 93q1 53 14.5 80.5t34.5 41t52 13.5h13 q33 -3 53.5 -18.5t33 -45.5t13 -56t0.5 -34q0 -40 -4 -92l-19 -175q-3 -26 -14 -186l-40 -456z"/>
<glyph glyph-name="quotedbl" horiz-adv-x="926" unicode='&quot;' d="M566 491l3 47l2 69q0 23 0.5 118t2 153t5 128t5 129.5t2.5 75t5.5 32t14 25.5t25 12.5t25.5 3.5h5q12 -2 21.5 -9.5t17 -19.5t7.5 -37q0 -23 -7 -68l-9 -70l-20 -133q-8 -50 -19.5 -142.5t-18 -156t-9.5 -84.5l-10 -67q-5 -31 -12.5 -41t-17.5 -10q-1 0 -6.5 0.5t-9.5 14 t-2 30.5zM319 477l-1 32l-9 96q-8 80 -14 188l-8 135l-9 132l-7 118q-1 13 -1 24q0 16 2 26q4 20 14.5 31t22 13.5t19.5 2.5q7 0 15 -1q17 -4 26.5 -12.5t16 -23.5t6.5 -46q-1 -17 -5 -61.5t-6 -95.5l-6 -126l-11 -182l-7 -197l-2 -38q-1 -19 -7.5 -28.5t-13.5 -9.5 q-1 0 -5.5 1t-7.5 6.5t-2 15.5z"/>
<glyph glyph-name="numbersign" d="M698 323h556l76 531h-560zM283 217v106h354l68 531h-417l1 106h432l62 441l58 -1l-57 -440h566l56 457l58 1l-53 -458h344v-106h-364l-71 -531h435v-106h-453l-64 -458h-58l61 459h-560l-61 -471l-56 -1l60 471h-341z" unicode="#"/>
<glyph glyph-name="dollar" horiz-adv-x="999" unicode="$" d="M539 58q30 6 72 18.5t94 66.5t53 130q0 73 -43 133q-42 57 -116 97l-60 33v-478zM437 740v440q-36 -5 -87.5 -15.5t-89.5 -55.5t-39.5 -81t-1.5 -39q0 -66 50 -128t123 -98zM438 1244v171h100l1 -171q27 -2 94 -8.5t130.5 -61.5t83.5 -122.5t20 -139.5v-44 q0 -30 -30.5 -35.5t-32.5 37.5l-3 44q-4 54 -27 104.5t-69 95t-103 52.5l-64 11l1 -481q47 -24 134 -69t160.5 -129t74.5 -205q0 -119 -95.5 -201t-222.5 -102l-51 -9v-174h-101v174q-26 3 -96 14.5t-131.5 62t-81 106.5t-24.5 145l-4 61q-1 27 20 30.5t28 -27.5l13 -66 q17 -89 73.5 -153t110.5 -72l92 -21v525q-40 19 -136.5 67t-149 121.5t-52.5 183.5q0 106 73.5 186.5t209.5 93.5z"/>
<glyph glyph-name="percent" horiz-adv-x="1508" unicode="%" d="M1184 -86q18 0 43.5 14t40.5 59.5t18 107.5t3.5 115t0.5 61q0 88 -10 154q-7 43 -19.5 67t-34.5 40t-43 16q-17 -1 -37 -13.5t-35.5 -46.5t-24 -94t-9 -88t-0.5 -32q0 -48 5 -116q4 -84 11 -126t22 -70.5t35 -38.5t34 -9zM950 231v17q0 56 12 119t42 116.5t76 85.5 t106 32q58 -1 107 -34t77.5 -92.5t41 -116t12.5 -124.5q-1 -69 -13 -126.5t-40 -115.5t-81 -93.5t-110 -35.5h-4q-44 0 -79.5 20.5t-66.5 62t-54.5 110.5t-25.5 175zM304 -136l804 1531h71l-800 -1531h-75zM298 674q18 0 37.5 11.5t36 47t23.5 85.5t7.5 106t0.5 63 q0 97 -7 183q-7 78 -24 112t-35.5 46t-36.5 13q-22 0 -43 -14.5t-37.5 -49t-22.5 -90.5t-6.5 -104t-0.5 -57q0 -73 4 -123q3 -54 10.5 -99.5t22.5 -77t34 -42.5t37 -10zM298 1394q33 -1 78 -19t75 -55.5t46 -82.5t25.5 -96t10 -89.5t0.5 -42.5q0 -69 -16 -151 q-11 -55 -26 -87.5t-39.5 -64t-65 -58.5t-93.5 -27h-4q-47 0 -83.5 22.5t-60.5 53.5t-43 75t-31.5 97.5t-12.5 147t16 157.5q11 45 40 102.5t74.5 87.5t109.5 30z"/>
<glyph glyph-name="ampersand" horiz-adv-x="1596" unicode="&amp;" d="M677 843q28 13 66 33t75 63t58 97.5t22 93t1 42.5q0 68 -25 109q-19 30 -55 52t-73 23q-32 0 -63 -17t-59 -66t-29 -130v-9q0 -102 42.5 -196t39.5 -95zM826 183q-102 127 -145 197l-82 144l-88 149q-76 -53 -117 -89t-65 -72.5t-37 -75.5t-13 -110t44 -145 q36 -64 92.5 -97t127.5 -33h6q87 0 119 26zM484 740q-41 104 -59.5 171.5t-18.5 138.5v8q0 113 45 190.5t127.5 125.5t174.5 48q78 -1 137.5 -35.5t93 -93t34.5 -138.5q0 -76 -32 -142q-42 -87 -78 -106l-204 -134q47 -92 84.5 -158t83.5 -132l96 -143q73 97 104 152 t46.5 108.5t15.5 106.5q-1 32 -9 54.5t-12 24.5l-77 47v28h428v-31q-63 -13 -91.5 -27t-57 -41.5t-42.5 -49t-67.5 -132t-95.5 -171.5l-90 -133q74 -81 121.5 -118.5t94.5 -54.5t104 -18q25 -1 45.5 4.5t23.5 11.5l101 125l26 -7q-18 -68 -35 -109.5t-52.5 -85.5 t-86.5 -70.5t-84.5 -27t-34.5 -0.5q-63 0 -122.5 18.5t-98.5 55.5l-142 124q-81 -72 -135.5 -106t-148 -62.5t-176.5 -28.5h-16q-98 2 -172.5 43t-116 114t-42.5 117t-1 49q0 77 28 146q28 70 88.5 134t112.5 95z"/>
<glyph glyph-name="quotesingle" horiz-adv-x="538" unicode="&apos;" d="M298 694l-9 -82q-7 -57 -14 -68t-13 -11q-2 0 -4 1q-9 2 -10.5 12.5t-1.5 56.5v63q0 57 1.5 133t2.5 98q0 41 -1 110.5t-1 107.5v45q0 36 3.5 59.5t13.5 36.5t25.5 18.5t25.5 5.5h4q12 -2 25 -11t19 -22t6 -29q0 -13 -3 -32l-20 -128l-20 -149q-29 -209 -29 -215z"/>
<glyph glyph-name="parenleft" horiz-adv-x="687" unicode="(" d="M476 -291l-38 47q-49 59 -128 177.5t-120 227.5t-56.5 211.5t-16.5 170.5t-1 106q2 99 17.5 201.5t57 213t124 232.5t161.5 220l33 41q8 11 21 21t21 10h5q4 -1 9 -7t5 -11q0 -9 -8 -23l-33 -56q-34 -57 -91 -157.5t-80.5 -159.5t-45.5 -142t-36 -161.5t-16 -146.5 t-2 -107t1 -72q3 -112 17.5 -195.5t32 -146t51 -152.5t138.5 -265l31 -52q36 -63 36.5 -74t-6 -14.5t-10.5 -3.5q-8 0 -20.5 8t-52.5 59z"/>
<glyph glyph-name="parenright" horiz-adv-x="687" unicode=")" d="M163 -263l30 51q103 176 137.5 266.5t52 151.5t31.5 144t16.5 155t2.5 118q0 31 -1 58q-4 116 -17.5 192.5t-35.5 160t-45 141t-84 166t-87 152.5l-34 56q-8 14 -8 22q0 5 4.5 11.5t8.5 7.5h5q8 0 22 -10.5t22 -19.5l33 -42q90 -116 165.5 -226.5t118 -224t58 -215.5 t17 -170.5t1.5 -104.5q-3 -100 -18.5 -202.5t-56.5 -211.5t-120 -227.5t-127 -177.5l-38 -47q-41 -51 -54 -59t-20 -8q-4 0 -10 3.5t-6 15t37 74.5z"/>
<glyph glyph-name="asterisk" horiz-adv-x="1024" unicode="*" d="M466 620q-109 35 -181 49.5t-97.5 32t-37 40t-11.5 45.5t8 37q9 15 27.5 22.5t36.5 7.5q26 -1 50 -13t60 -45l76 -73l89 -79q-5 59 -10.5 84t-29.5 98t-24 121q0 43 11.5 64t28 31t39.5 10h4q18 -2 33 -11t31 -34.5t16 -58.5q0 -31 -15 -79q-31 -103 -34 -127l-16 -101 q78 69 115 106l60 61q30 30 50.5 39.5t42.5 9.5q23 -1 42.5 -12.5t30.5 -29t11 -37.5q0 -19 -15 -40q-16 -21 -60 -43t-111 -39l-156 -42q49 -17 83.5 -28.5t87.5 -26.5t76.5 -25t45 -24.5t31.5 -37t2.5 -49.5t-31.5 -41t-60 -6q-34 6 -56 24t-52 53t-35 41l-97 95 q8 -91 18 -134l22 -88q9 -42 10.5 -79t-5.5 -58q-8 -22 -25.5 -37t-38.5 -16h-6q-18 0 -38 12t-31 29.5t-12 37.5t-1 26q0 27 6 52q2 11 21 67.5t28 102.5l18 94q-51 -48 -75 -72l-62 -64q-31 -31 -56.5 -51t-45.5 -29.5t-38 -8.5q-26 0 -46 16t-23.5 35.5t-3.5 25.5 q0 29 28 59q9 10 24 19.5t105 39.5z"/>
<glyph glyph-name="plus" horiz-adv-x="1291" unicode="+" d="M141 562v104l446 -1v471h117v-470h456v-104h-456v-469h-117v470z"/>
<glyph glyph-name="comma" horiz-adv-x="559" unicode="," d="M177 -339v42q22 14 44 27.5t41.5 28t40 39.5t33 50.5t15.5 56.5t-9 50l-20 33q-32 -11 -54.5 -15.5t-47.5 -2.5q-36 2 -54 16t-28.5 39.5t-10.5 53.5t14.5 54t42 41t60.5 18h9q37 0 69.5 -15.5t56.5 -45t38.5 -70.5t14.5 -82v-11q-2 -27 -9.5 -58.5t-23 -65t-41.5 -61.5 t-64 -56t-62 -39z"/>
<glyph glyph-name="hyphen" horiz-adv-x="1291" unicode="-" d="M138 562v104h1015v-104h-1015z"/>
<glyph glyph-name="period" horiz-adv-x="559" unicode="." d="M162 77q1 31 16 60.5t39.5 42.5t51.5 14q29 0 56 -15.5t44 -44.5t17 -62q-1 -33 -17.5 -60.5t-39 -41t-43.5 -15.5q-8 -1 -15 -1q-12 0 -28 4t-39 23t-32.5 40.5t-9.5 49.5v6z"/>
<glyph glyph-name="slash" horiz-adv-x="1291" unicode="/" d="M97 -137l1017 1532q18 37 31 44t23 7t23.5 -5t13.5 -13q0 -4 -4 -9l-27 -61l-1012 -1523q-21 -32 -36 -41t-25 -9l-15 5q-15 6 -15 15q0 7 6 15z"/>
<glyph glyph-name="zero" horiz-adv-x="1023" unicode="0" d="M528 -11q43 1 76.5 17.5t65 51.5t50.5 78.5t29.5 134t14.5 177t4 175.5v40q-2 120 -8 213.5t-14.5 145.5t-28 115t-47 100t-64 55.5t-73.5 19.5q-45 0 -83.5 -21t-70.5 -57t-51 -82t-32.5 -117.5t-17 -129t-3.5 -149.5q0 -46 1 -104q1 -172 6.5 -253.5t24.5 -164t50 -143 t72.5 -81.5t89.5 -21h9zM81 679q1 79 14 173.5t36 162t59.5 130.5t86.5 113t108 80t141 31q61 0 111.5 -18.5t97 -55t89 -91.5t71 -118t46 -158.5t21 -166t3.5 -120.5q0 -45 -2 -90q-5 -102 -18 -175.5t-36 -128.5t-62 -113.5t-84.5 -101.5t-104 -73.5t-131.5 -30.5h-9 q-53 1 -108 22.5t-100 58t-82.5 86t-66.5 108t-47.5 143t-25.5 166.5t-7 149v18z"/>
<glyph glyph-name="one" horiz-adv-x="1024" unicode="1" d="M244 1181l-4 30l362 166v-1245q0 -83 6.5 -107.5t26.5 -38t53 -14.5l87 -5v-43h-519v39q30 2 51 5t47.5 10.5t40.5 19t24.5 34t10.5 91.5v949q0 46 -5.5 75.5t-15.5 41.5t-43 14q-28 1 -55 -6z"/>
<glyph glyph-name="two" horiz-adv-x="1024" unicode="2" d="M69 -76v46q131 115 196 179.5t158.5 169.5t139 165.5t74.5 108t47 96t26 98t8 101.5q-1 57 -16 120t-48 105t-99.5 77t-138.5 36q-47 0 -85.5 -14.5t-79.5 -48t-57 -65.5l-53 -94h-32q12 72 25 112t41 88.5t73.5 86.5t101.5 59t121 24h8q42 0 99.5 -9.5t107 -34t87 -64 t63.5 -90.5t34.5 -97.5t8.5 -98.5q0 -21 -1 -45q-4 -53 -11.5 -83.5t-29 -80t-39.5 -82.5t-49 -78.5t-106.5 -138t-197.5 -209.5l-196 -190q129 1 213 1q85 0 134.5 -1t79.5 -1q15 0 32 0.5t56.5 6t80.5 23t48 31.5l38 58h37q-22 -53 -37 -92.5t-28 -79.5l-31 -95h-803z"/>
<glyph glyph-name="three" horiz-adv-x="1024" unicode="3" d="M338 658v37q67 12 108.5 24.5t76.5 35t68 58t55 85t22 113.5q0 61 -24 111q-17 34 -46.5 61.5t-75.5 43t-104 15.5q-58 -1 -102.5 -17.5t-70.5 -46.5l-43 -49l-26 -34q-18 -16 -29.5 -11t-14 20t22.5 47l47 72q27 40 63 68t86 49.5t109 28.5q24 3 48 3q32 0 73.5 -6.5 t81.5 -22.5t69.5 -42.5t53.5 -65t32 -67.5t8 -61q0 -11 -1 -22q-4 -52 -19 -93.5t-45 -83t-67 -75.5l-55 -51q72 -41 111.5 -69t69 -63.5t51.5 -89.5t23 -92.5t1 -47.5q0 -59 -12 -115q-13 -55 -37 -111t-57 -98.5t-82.5 -76t-111 -56t-104.5 -27t-81 -4.5q-32 0 -70 2 q-46 2 -88 5.5t-73.5 16t-46.5 33.5t-16 34.5t-1 18.5q0 15 4 24q6 13 31.5 26.5t43.5 14.5h2q22 0 71 -25.5t78.5 -36t67.5 -14.5q19 -2 40 -2q31 0 76 7t88 34t74 75.5t44.5 94t13.5 92.5v13q-2 45 -17.5 91.5t-42.5 85.5t-80 77t-94 40z"/>
<glyph glyph-name="four" horiz-adv-x="1024" unicode="4" d="M139 427h478v731zM51 274v104t5.5 54t37 63t94.5 138l427 635l60 91l113 -1l-1 -931h178v-153l-177 -1v-335h-170v335z"/>
<glyph glyph-name="five" horiz-adv-x="1024" unicode="5" d="M403 1357l497 1l-76 -151h-409l-97 -206q87 -18 140 -32.5t101 -37t101 -59.5t92.5 -83t68 -105.5t38.5 -105.5t10 -97q0 -21 -1 -45q-4 -63 -18.5 -119.5t-41.5 -107t-66 -97.5t-99.5 -86t-125 -60.5t-138.5 -25.5q-20 -1 -39 -1q-44 0 -85 8t-78 23t-54.5 38t-17.5 54 q0 14 5.5 27.5t24.5 24.5t40 11q19 -1 35 -8.5t58 -31.5t84.5 -38t90.5 -14h7q37 0 71.5 9.5t84.5 39t87 91t44.5 109t7.5 82.5q0 30 -4 61q-11 76 -38.5 134t-70.5 105t-92 80.5t-104 52.5t-102 26.5t-103.5 13t-61.5 14.5t0 27l33 62z"/>
<glyph glyph-name="six" horiz-adv-x="1024" unicode="6" d="M546 -26q65 9 103 23.5t62.5 43.5t36.5 69t18 86.5t6.5 83.5t0.5 41q0 65 -7 134q-8 71 -25 125.5t-48.5 93.5t-79 63t-111.5 25q-90 0 -142 -31l-97 -52q-5 -60 -7 -101t-2 -78v-29q0 -57 7 -123t25 -127t43 -109t55.5 -76.5t64 -41t97.5 -20.5zM929 1362v-29 q-91 -10 -146.5 -24.5t-122.5 -53t-111.5 -74.5t-87 -82.5t-75.5 -100.5t-44 -87l-56 -148q74 39 117.5 56.5t95.5 28.5t96 11l29 -1q52 -4 101 -22.5t93 -52t69.5 -71.5t44 -92t22.5 -97t4 -76q0 -26 -2 -53q-5 -71 -21 -137t-48.5 -129t-81.5 -107.5t-114.5 -70.5 t-154.5 -26h-20q-80 2 -136.5 22t-104.5 54t-83.5 74t-66.5 111t-45 142t-15 130.5t-1 74.5q0 83 9 142q9 58 31.5 124t47.5 116t62 103t97 108.5t129.5 102.5t146.5 77.5t150.5 44t101.5 13.5h4z"/>
<glyph glyph-name="seven" horiz-adv-x="1024" unicode="7" d="M222 1365l731 -1l-437 -1429h-108l385 1273q-59 -1 -99 -1h-34l-121 1l-156 -1h-18q-42 0 -66 -4.5t-42.5 -17t-45.5 -44t-42.5 -56.5t-29.5 -36t-26 -4.5t-12 17.5q0 12 15 50z"/>
<glyph glyph-name="eight" horiz-adv-x="1024" unicode="8" d="M543 766h2q26 0 68.5 28t72.5 72t42.5 84.5t15 80.5t2.5 59q0 34 -4 64q-11 63 -38 95t-73.5 55.5t-109.5 24.5q-68 0 -118 -26.5t-74 -58t-33.5 -66.5t-9.5 -67q0 -14 2 -29q4 -49 22 -94.5t45.5 -78t71.5 -71t75 -55.5t41 -17zM450 623q-45 -38 -71 -65t-51.5 -70 t-36 -88t-10.5 -102v-10q0 -80 15 -127.5t41.5 -83.5t72.5 -64t122 -28h5q72 0 128.5 30t79 68.5t29 72t6.5 59.5q0 16 -2 32q-7 47 -31.5 92t-76.5 99.5t-102 93.5zM408 654q-79 61 -117 94.5t-62.5 63t-52 86.5t-27.5 154q0 94 43 165q42 70 122 111.5t169 49.5q19 1 38 1 q35 0 76 -6t68 -16.5t56 -29t60 -44t53.5 -60.5t34 -79t11.5 -81q0 -11 -1 -23q-5 -45 -27.5 -95t-64.5 -94.5t-85 -69.5l-104 -65q74 -55 124 -95t98 -94.5t70 -113t22 -124.5v-17q-3 -58 -23 -112.5t-60.5 -103t-113.5 -88t-186 -40.5h-7q-65 0 -125 17t-112 50.5t-89 80 t-49.5 91t-12.5 92.5v15q1 30 10 72t30 80t54.5 73t87.5 79z"/>
<glyph glyph-name="nine" horiz-adv-x="1024" unicode="9" d="M249 924q2 -88 12.5 -141.5t33 -106.5t58.5 -88.5t75 -45.5t79 -10q14 0 29 1q46 2 79 12t63 29.5t45.5 42t15.5 92.5v9q-3 92 -10 181.5t-16.5 133.5t-24 90t-38 88.5t-77 71.5t-105.5 30q-55 0 -99.5 -25t-68 -60.5t-35 -77t-14.5 -86.5t-3 -82q0 -28 1 -58zM714 548 q-38 -29 -68.5 -47t-91 -35t-110.5 -17h-6q-73 0 -132.5 26t-98 58.5t-68.5 82.5t-43 106.5t-13 124.5q0 27 2 57q6 99 28.5 175t53 119t72 78.5t104.5 64.5t147 29q97 -1 161 -36t100 -66t72 -86.5t59 -128.5t31 -136t8.5 -106.5t0.5 -47.5q0 -78 -10 -142 q-10 -62 -28.5 -116.5t-41 -103.5t-53 -97.5t-77.5 -100.5t-98 -94.5t-106 -76.5t-106.5 -54.5t-117.5 -34t-109 -13.5h-6h-63v38q21 4 48 8.5t56.5 11t70 20.5t81 36t87 61t88 90.5t82 121t53.5 109.5z"/>
<glyph glyph-name="colon" horiz-adv-x="559" unicode=":" d="M269 955q28 -1 55.5 -16t43.5 -43t16.5 -58.5t-14.5 -55.5q-15 -26 -41 -41t-56 -14q-31 0 -56.5 14.5t-40 39.5t-15 50t4.5 42q6 25 22 44t37.5 28.5t43.5 9.5zM270 168q29 -1 56.5 -16t44 -43t16.5 -58q-1 -29 -15.5 -54.5t-40.5 -41t-57 -15.5h-4q-30 0 -55 15.5 t-39.5 40t-14.5 52t8 50.5q7 19 23 36t37 25.5t41 8.5z"/>
<glyph glyph-name="semicolon" horiz-adv-x="561" unicode=";" d="M181 840q1 34 15 59.5t38.5 40t53.5 15.5q30 0 57.5 -16.5t43 -43t15.5 -56.5q-1 -31 -16 -57t-41.5 -41.5t-55.5 -15.5q-25 -1 -46.5 9.5t-38.5 31t-21.5 41.5t-3.5 33zM140 -390v32q36 22 61.5 38.5t49.5 35t52 52t42.5 70t14.5 58.5q0 9 -2 17l-12 52q-26 -9 -54 -18 t-54 -7q-42 2 -63.5 22t-29.5 40t-8 44q0 31 15.5 58.5t47 45.5t67.5 18q36 -1 66.5 -17.5t51.5 -39t34 -60t13.5 -66.5t0.5 -36q0 -38 -4 -63q-6 -31 -23 -69.5t-40 -67t-75.5 -66t-81.5 -47.5z"/>
<glyph glyph-name="less" horiz-adv-x="1177" unicode="&lt;" d="M74 584v37l1030 532v-110l-856 -439l856 -437v-111z"/>
<glyph glyph-name="equal" horiz-adv-x="1291" unicode="=" d="M147 750v99h1003v-99h-1003zM147 388v98h1003v-98h-1003z"/>
<glyph glyph-name="greater" horiz-adv-x="1097" unicode="&gt;" d="M48 54v108q74 37 113 57t258.5 137t365.5 191l115 58q-72 39 -110.5 60t-169.5 90l-464 244l-108 56v111q80 -44 128 -69.5t286 -149t492 -259.5l110 -59v-44q-88 -48 -113.5 -61t-137.5 -70t-365 -192t-318 -167z"/>
<glyph glyph-name="question" horiz-adv-x="796" unicode="?" d="M285 -141q3 21 17.5 47.5t38 39.5t49.5 14q29 0 55.5 -15.5t43 -45t16.5 -70.5q0 -39 -22 -73q-14 -22 -34 -34t-46 -12h-8q-25 0 -47.5 11.5t-40.5 35t-22 52.5t0 50zM406 108h-41v31q0 105 6.5 154t16 85t28 81.5t39.5 92.5l36 82q23 53 35.5 90.5t22.5 90.5t10 98v16 q-2 47 -16.5 98t-37 81.5t-52 49.5t-60 28.5t-56.5 9.5q-16 0 -34 -3q-44 -7 -76.5 -30.5t-46.5 -55t-14 -54.5q0 -11 3 -21q3 -18 30 -59t34.5 -73.5t-3.5 -55.5t-35 -35t-56 -5q-29 6 -45.5 23t-27.5 50.5t-14.5 62.5t-3.5 46q0 20 3 37q5 24 24.5 59t49 65t76 56.5 t91 38.5t108.5 12q58 -1 99.5 -12t80.5 -34t74 -58.5t58 -83.5t23 -123v-13q-2 -42 -11 -86.5t-26.5 -86.5t-45.5 -86.5t-47.5 -69t-56 -65.5t-57 -70t-32.5 -54.5t-27 -74t-15 -62.5z"/>
<glyph glyph-name="at" d="M883 212q64 4 117.5 30t92 77.5t69 128t44.5 142t15 152.5q0 82 -25 123q-18 28 -51 47.5t-83 20.5q-56 0 -101 -22.5t-79 -58t-56 -76.5t-43 -107t-38.5 -146.5t-17.5 -137.5v-6q0 -44 11.5 -82.5t32 -56t54 -24t58.5 -4.5zM1100 224q-65 -48 -105 -70.5t-84 -34.5 t-85 -12h-7q-70 0 -124 30t-78.5 71.5t-37.5 93.5t-13.5 80t-0.5 31q0 50 8 101q10 77 36.5 152.5t65 137t75 101.5t82.5 68.5t92.5 42t117.5 13.5q52 -1 96 -14t56 -29l90 -100l55 119l149 1q-24 -79 -36 -118l-68 -222q-29 -93 -52.5 -175.5t-38 -127.5t-14.5 -75 q0 -9 1 -17q3 -28 18.5 -47t54.5 -22h9q48 0 127 48t154 163t75 343v6q-1 89 -18.5 164.5t-54.5 136t-87 104.5t-113 81t-151.5 63t-231.5 26q-184 -1 -277 -38t-151.5 -78.5t-114 -99t-94.5 -130.5t-65 -154t-35 -150t-9 -127v-12q0 -98 22 -191.5t83.5 -191t181.5 -165.5 t239 -96t239 -28h17q89 0 191.5 16.5t167.5 41.5t126.5 64.5t105.5 87.5l77 80l81 -1q-34 -53 -58.5 -83.5t-74.5 -74.5t-94 -75t-115 -60.5t-183 -48t-215 -20.5q-21 -1 -41 -1q-71 0 -149.5 9.5t-162.5 35.5t-165.5 70t-145.5 103t-118.5 159.5t-70.5 182t-16 177.5t5 148 q5 54 20 111t49.5 135t73.5 140.5t100 124t152.5 114t203.5 80t227 29.5h9q120 0 221 -27t179 -72t130 -92.5t96 -114.5t68.5 -153.5t25.5 -143.5v-61q0 -110 -21 -200q-13 -56 -35.5 -110t-55 -104.5t-93 -107.5t-151 -92.5t-161.5 -35.5h-8q-45 1 -74 13.5t-46 30 t-33 43.5z" unicode="@"/>
<glyph glyph-name="A" horiz-adv-x="1595" unicode="A" d="M519 531h468l-249 643zM1009 477h-510l-133 -380q-8 -23 -6.5 -44.5t24.5 -37t87 -15.5h66q33 0 32.5 -30t-32.5 -30h-430q-27 0 -29 16.5t-2 19.5q0 24 31 24h58q30 0 52 11.5t40.5 33.5t31.5 57l444 1254q14 41 32 42t19 1q33 0 48 -38l485 -1256q20 -53 53.5 -79 t71.5 -26h33q30 0 30 -29q0 -31 -30 -31h-466q-28 0 -28.5 30t28.5 30h35q68 0 84.5 12t22 27.5t5.5 25.5q0 20 -10 48z"/>
<glyph glyph-name="B" horiz-adv-x="1379" unicode="B" d="M408 665v-549q0 -46 35.5 -78.5t72.5 -32.5h229q87 0 165 36t117.5 114t41.5 133t2 64q0 91 -38 163q-53 95 -129.5 122.5t-169.5 27.5h-326zM734 1309h-191q-77 0 -106 -34t-29 -68v-480h321q66 0 125.5 27t105 94.5t45.5 180.5q-1 94 -39.5 156.5t-103 93t-128.5 30.5z M154 1309h-58q-33 0 -33 32.5t33 32.5h674q74 0 168 -24.5t165 -112t71 -202.5v-6q-2 -72 -33 -129.5t-88.5 -104.5t-113.5 -68l-67 -27q66 -11 126.5 -27t124.5 -69.5t90.5 -125.5t26.5 -144v-11q-4 -104 -48.5 -180t-115.5 -121.5t-147.5 -63t-163.5 -17.5h-658 q-30 0 -34 32t37 32h52q47 0 70.5 25.5t23.5 82.5v1099q0 48 -26 72.5t-76 24.5z"/>
<glyph glyph-name="C" horiz-adv-x="1487" unicode="C" d="M1181 1390l99 -328q9 -33 -14.5 -43.5t-37.5 13.5l-28 46q-31 50 -67.5 97.5t-113 98.5t-194.5 51h-18q-112 -4 -208 -66t-142.5 -160.5t-67.5 -205.5t-21 -207v-18q2 -193 71.5 -331t174.5 -209t242 -72h10q112 0 187 46t131.5 119.5t79.5 110.5l27 43q17 27 31 19 t14 -20q0 -9 -6 -23l-22 -52q-18 -42 -71.5 -128.5t-158.5 -160t-250 -78.5q-14 -1 -27 -1q-143 0 -262.5 72t-191 168.5t-106.5 214t-35 271.5v9q1 142 31.5 259.5t94 220.5t174 171.5t262.5 75.5h24q75 0 145 -16l97 -27q31 -8 51 -6q28 2 58 22z"/>
<glyph glyph-name="D" horiz-adv-x="1465" unicode="D" d="M684 4q81 6 171 27t184 128.5t120.5 236t26.5 281.5v11q-1 89 -12.5 179.5t-61.5 181.5t-121 149.5t-158 86t-146 27.5h-163q-55 0 -81.5 -15.5t-39 -34.5t-12.5 -53l-2 -1061v-12q0 -54 9 -74t36.5 -39t70.5 -19h179zM86 4h55q32 0 53.5 13t31 37t9.5 64v1085 q0 38 -11.5 60t-34 35.5t-56.5 13.5h-55q-31 0 -31 35q0 30 31 30h592q55 0 119 -7.5t134.5 -29.5t171 -83.5t160.5 -172.5t78 -201t19 -213q0 -117 -25 -227q-35 -153 -113 -262t-180 -161t-190.5 -66t-170.5 -14h-587q-27 0 -27.5 32t27.5 32z"/>
<glyph glyph-name="E" horiz-adv-x="1280" unicode="E" d="M1136 1379l31 -348q2 -29 -18 -35.5t-35 21.5l-27 50q-25 44 -67 98t-92.5 87t-110 47t-138.5 14h-157q-63 0 -84 -11.5t-32 -34.5t-11 -68v-488h259q52 0 80.5 18t42.5 50.5t14 87.5v77q0 29 32 29.5t32 -29.5v-521q0 -30 -32 -29.5t-32 29.5v88q0 58 -14 86.5t-42 43.5 t-73 15h-267v-534q0 -50 16.5 -74.5t41 -35t69.5 -10.5h228q58 0 117.5 18t115 62t83.5 87.5t54 97.5l25 52q14 30 31.5 25t17.5 -26v-7l-49 -371h-1059q-32 0 -33.5 31t33.5 31h50q32 0 56.5 10.5t39 30t14.5 82.5v1062q0 76 -29.5 100.5t-80.5 25.5l-56 1q-32 0 -32 32.5 t33 32.5h1055z"/>
<glyph glyph-name="F" horiz-adv-x="1303" unicode="F" d="M91 1322q-27 17 -27 38.5t27 21.5h1086l45 -359v-7q0 -23 -18.5 -29.5t-31.5 17.5l-28 48q-39 66 -77 113t-84.5 80.5t-109 55t-124.5 21.5h-160q-135 0 -157.5 -29.5t-22.5 -72.5v-508l268 1q28 0 50.5 8.5t38 29.5t26 62t10.5 73v65q0 30 30 32.5t30 -32.5v-521 q0 -39 -30 -37t-30 31v74q0 30 -7 62t-24 53t-41.5 32.5t-55.5 11.5h-265v-527q0 -63 18 -85.5t52 -31.5t96 -9h58q34 0 32.5 -31t-32.5 -31h-528q-29 0 -30.5 31t30.5 31h41q39 0 62.5 11t36 30.5t12.5 79.5v1062q0 42 -10.5 72.5t-37 46.5t-68.5 16h-50z"/>
<glyph glyph-name="G" horiz-adv-x="1467" unicode="G" d="M910 530h-84q-32 0 -33.5 31.5t33.5 31.5h529q33 0 33 -29q0 -34 -33 -34h-52q-36 0 -55.5 -12t-28.5 -31t-9 -41v-444q0 -20 -14 -25.5t-29 4.5l-22 19q-24 17 -63 18q-35 0 -94.5 -22.5t-115.5 -39.5t-136 -18h-11q-88 0 -191.5 32.5t-205.5 116t-157 196.5t-66 204.5 t-11 151.5q0 72 10 149q19 150 74.5 268.5t143.5 194t193 106t216 30.5h7q59 -1 101 -9t89 -24t67 -18q37 -6 56 3.5t31 26.5l14 21q9 12 18.5 13.5t10.5 1.5q16 0 28 -31l107 -310q5 -14 5 -25q0 -22 -23.5 -33t-41.5 18l-25 38q-27 39 -68 86.5t-102 88.5t-128.5 61 t-122.5 20q-44 0 -92 -9q-72 -15 -146.5 -59t-137.5 -131.5t-88.5 -197t-27.5 -174t-2 -88.5q0 -73 7 -132q16 -156 83 -279t172.5 -179t221.5 -59h18q99 0 174 41.5t97 101.5t22 106v164q0 37 -13 61.5t-40.5 36.5t-91.5 12z"/>
<glyph glyph-name="H" horiz-adv-x="1701" unicode="H" d="M477 710h735v506q0 27 -11 47.5t-31 34.5t-60 14h-66q-39 0 -39.5 33.5t39.5 33.5h486q32 0 35.5 -34.5t-35.5 -34.5h-58q-50 0 -69.5 -11.5t-29 -32.5t-9.5 -59v-1069q0 -68 16 -91t43 -35t79 -12h36q39 0 39 -33q0 -27 -39 -27h-483q-39 0 -37 30t37 30h66 q29 0 48.5 12t31 34t11.5 92v522h-735v-528q0 -60 12 -82.5t41.5 -36t79.5 -13.5h49q36 0 35.5 -30t-35.5 -30h-492q-31 0 -33.5 30t36.5 30h50q37 0 61.5 15t34 36.5t9.5 74.5v1056q0 41 -9 67t-36.5 44.5t-81.5 18.5h-55q-37 0 -37 36q0 31 37 31h508q27 0 29.5 -33.5 t-29.5 -33.5h-75q-32 0 -53 -13t-33.5 -30.5t-12.5 -54.5v-504z"/>
<glyph glyph-name="I" horiz-adv-x="707" unicode="I" d="M274 108v1101q0 21 -11.5 47t-32 43t-63.5 17h-72q-27 0 -27 26q0 34 27 34h492q38 0 40.5 -30t-40.5 -30h-52q-46 0 -67.5 -13t-32 -34.5t-10.5 -48.5v-1101q0 -50 13 -73t36 -37.5t74 -14.5h52q31 0 31 -26q0 -31 -31 -31h-489q-31 0 -32.5 28.5t32.5 28.5h69 q27 0 49 13t33.5 37t11.5 64z"/>
<glyph glyph-name="J" horiz-adv-x="906" unicode="J" d="M478 1208q-5 42 -16.5 65.5t-34.5 35.5t-60 12h-71q-35 0 -34.5 30t34.5 30h500q40 0 41 -31q0 -29 -38 -29h-64q-41 0 -66 -14t-32 -34t-7 -60v-863q0 -90 -17 -169t-68.5 -130t-112.5 -81t-131 -34q-11 -1 -22 -1q-48 0 -89.5 16.5t-68.5 49.5t-27 72v8q2 26 21 49 t51 28q26 3 57.5 -14t44.5 -47l11 -34q10 -27 28.5 -38.5t33.5 -11.5q19 0 46 11q38 16 58.5 50t26.5 105.5t6 167.5v861z"/>
<glyph glyph-name="K" horiz-adv-x="1605" unicode="K" d="M441 607l596 611q25 26 32.5 52.5t-2.5 39.5t-39 13h-57q-33 0 -31.5 28.5t31.5 28.5h437q31 0 32.5 -28.5t-32.5 -28.5h-47q-54 0 -97.5 -20t-74.5 -43.5t-55 -47.5l-374 -377l482 -668q42 -60 83 -97t75.5 -51.5t62.5 -16.5l33 -2q34 -3 34 -35q0 -28 -34 -28h-512 q-38 0 -36.5 31.5t36.5 31.5h56q45 0 64 11t22 23t3 15q0 22 -32 66l-420 591l-18 25l-218 -220v-399q0 -53 9 -67t36.5 -29.5t87.5 -15.5h50q41 0 38 -31.5t-38 -31.5h-507q-32 0 -38 31.5t38 31.5h44q58 0 82 14t33.5 33.5t9.5 72.5v1092q0 41 -13 63t-34 35t-73 13h-63 q-30 0 -30 27q0 30 30 30h504q32 0 33.5 -28.5t-33.5 -28.5h-64q-41 0 -62.5 -17.5t-30.5 -36t-9 -54.5v-608z"/>
<glyph glyph-name="L" horiz-adv-x="1277" unicode="L" d="M1169 -55h-1070q-26 0 -25.5 29.5t31.5 29.5h44q34 0 60 11.5t41 30t15 76.5v1098q0 35 -11 54t-36 32t-69 13h-58q-33 0 -33 29.5t33 29.5h496q29 0 33.5 -29.5t-33.5 -29.5h-58q-40 0 -61.5 -12.5t-34.5 -33.5t-13 -45v-1106q0 -43 21 -69t57.5 -37.5t124.5 -11.5h142 q70 0 137.5 15.5t114 51.5t76.5 88.5t49 104.5l25 70q7 22 27 23t18 -23z"/>
<glyph glyph-name="M" horiz-adv-x="1855" unicode="M" d="M429 1375l484 -1169l454 1169h361q33 0 36 -34t-36 -34h-71q-42 0 -56.5 -11t-23.5 -29.5t-9 -45.5v-1088q0 -56 14 -82t43 -39.5t73 -13.5h66q30 0 30 -27t-30 -27h-507q-28 0 -28 27t28 27h46q35 0 60 14.5t38 35.5t13 79v1150l-508 -1292q-17 -41 -28 -41l-10 -1 q-20 0 -33 34l-508 1241v-1129q0 -38 15 -54t50.5 -26.5t83.5 -10.5h49q36 0 33.5 -27t-33.5 -27h-438q-28 0 -32 27t32 27h61q35 0 61 10t41.5 29t15.5 49v1086q0 51 -14 79.5t-36.5 42t-76.5 13.5h-71q-36 0 -36 34t36 34h361z"/>
<glyph glyph-name="N" horiz-adv-x="1596" unicode="N" d="M392 1379l870 -1183v1007q0 37 -8 58.5t-26 38.5t-54 17h-88q-34 0 -34.5 31t34.5 31h384q51 0 51 -36q0 -26 -46 -26h-58q-49 0 -65 -12t-22.5 -30.5t-6.5 -58.5v-1227q0 -38 -19.5 -41.5t-24.5 -3.5q-27 0 -47 28l-901 1271v-1136q0 -42 13.5 -62.5t34.5 -30.5t71 -10 h50q31 0 35.5 -29.5t-41.5 -29.5h-384q-34 0 -31.5 29.5t31.5 29.5h66q26 0 46.5 11t34 33.5t13.5 58.5v1093q0 30 -11.5 56.5t-33.5 43.5t-68 17h-64q-38 0 -38 31t38 31h299z"/>
<glyph glyph-name="O" horiz-adv-x="1481" unicode="O" d="M248 654q4 -130 33 -242.5t99 -212.5t148 -149.5t188 -52.5h20q96 0 191.5 46t166.5 151.5t94.5 211t23.5 228.5v20q-3 129 -28 240t-88.5 215t-162 163.5t-213.5 59.5h-4q-123 -2 -226 -71t-160.5 -185.5t-70 -210.5t-12.5 -169q0 -21 1 -42zM79 654v8q0 117 29 240.5 t117.5 244.5t213 182.5t277.5 64.5h11q132 0 252 -46t197 -127t115 -156.5t65 -174t27 -219.5v-17q-3 -164 -57.5 -297.5t-147 -232.5t-210 -145.5t-242.5 -46.5h-10q-130 1 -236 48t-210.5 157.5t-146.5 242.5t-44 274z"/>
<glyph glyph-name="P" horiz-adv-x="1250" unicode="P" d="M390 661h185q105 0 199 20.5t165.5 90.5t72.5 197q0 123 -53 204q-55 84 -128.5 113.5t-134.5 29.5h-152q-57 0 -88.5 -14.5t-48.5 -32t-17 -49.5v-559zM390 604v-485q0 -50 10.5 -68t35 -34t75.5 -16h66q39 0 38.5 -31t-38.5 -31h-511q-35 0 -33.5 31t33.5 31h61 q43 0 67 13t33.5 31t9.5 90v1093q0 27 -10.5 45t-31 30.5t-60.5 12.5h-77q-34 0 -34 35q0 28 34 28h638q93 0 184.5 -18t162 -71.5t100.5 -128.5t31 -179q0 -100 -36 -170q-49 -95 -143.5 -141.5t-206.5 -56.5t-208 -10h-190z"/>
<glyph glyph-name="Q" horiz-adv-x="1447" unicode="Q" d="M842 24q-11 34 -20.5 60t-35 81t-70 105.5t-116.5 50.5q-56 -1 -93.5 -39.5t-39.5 -78.5t-2 -48q0 -60 24 -90q24 -33 87 -52t109 -20h19q55 0 96 16t42 15zM393 153q3 39 14.5 89.5t66.5 93t128 47.5h16q45 0 88 -15t79 -45.5t71 -77.5t61 -97l35 -67q29 26 63 60 t76 108.5t65 175.5t23 224q0 25 -1 50q-6 148 -38.5 255t-93 192t-147.5 138.5t-201 53.5h-13q-96 -3 -179.5 -48t-141 -120t-88 -164.5t-40 -151t-10 -124t-0.5 -67.5q0 -114 22 -205q32 -141 114 -259zM992 4q33 -66 72 -108.5t101 -42.5h4q42 0 76.5 23.5t47.5 30t23 0.5 t0 -34q-5 -12 -23 -31l-18 -19q-37 -38 -84 -58.5t-96 -20.5h-5q-62 0 -111.5 32.5t-81.5 112.5l-29 68q-49 -12 -99.5 -21t-77.5 -9q-61 0 -158 25t-178.5 87t-148 153.5t-104.5 209t-38 261.5q0 18 1 36q4 144 46.5 263.5t131 227t203 156.5t239.5 52h11q128 0 247 -46 t218 -147t140 -234.5t42 -211t1 -82.5q0 -144 -41 -275q-45 -143 -122.5 -236t-142.5 -133z"/>
<glyph glyph-name="R" horiz-adv-x="1536" unicode="R" d="M418 710h333q96 0 167.5 30.5t113.5 107t42 156.5v7q-3 86 -50 157.5t-124 108.5t-173 37h-163q-58 0 -85 -13.5t-44 -34.5t-17 -68v-488zM818 656l357 -542q23 -36 52.5 -64.5t57 -36t65.5 -7.5h88q36 0 36 -36q0 -30 -36 -30h-320l-471 716h-229v-522q0 -72 11.5 -89 t31 -28t70.5 -11h69q32 0 32.5 -33t-35.5 -33h-499q-27 0 -31.5 33t31.5 33h44q55 0 77.5 10.5t33 33t10.5 84.5v1066q0 38 -7.5 58t-26.5 38t-84 18h-66q-29 0 -32.5 18.5t-3.5 21.5q0 25 36 25h675q130 0 249.5 -36.5t181 -120t62.5 -144.5t1 -67q0 -109 -37 -174 q-48 -83 -140 -124t-181 -49z"/>
<glyph glyph-name="S" horiz-adv-x="1141" unicode="S" d="M914 1335l116 -336q9 -29 -14 -41.5t-41 20.5l-25 45q-24 43 -79 115t-141.5 131t-190.5 59h-4q-106 -2 -176 -63t-79 -123.5t-9 -83.5q0 -76 43 -135q38 -54 115.5 -91t211.5 -77t228.5 -85.5t150.5 -130t57.5 -141t1.5 -61.5q0 -103 -54 -190q-51 -82 -146 -137.5 t-208 -63.5q-24 -2 -48 -2q-47 0 -103 10t-96 23l-108 33q-34 7 -49 0q-14 -7 -20 -20l-7 -21q-10 -21 -20.5 -22t-11.5 -1q-18 0 -29 31l-146 385q-4 11 -4 20q0 17 19 26.5t35 -15.5l35 -60q22 -40 87.5 -125t165 -140.5t223.5 -56.5h5q76 0 145.5 27.5t120.5 95.5t51 163 q-1 84 -40.5 137t-118.5 91.5t-214.5 81.5t-228 86.5t-149.5 125t-59 138.5t-2 63q0 101 58 191q55 86 148.5 132.5t210.5 46.5h15q66 -2 115 -16.5t93 -38t65 -23.5q4 0 8 1q13 3 23 13l19 24q9 9 26.5 11.5t28.5 -26.5z"/>
<glyph glyph-name="T" horiz-adv-x="1418" unicode="T" d="M101 1375l1199 2l78 -330q1 -6 1 -11q0 -18 -20 -25t-34 17l-36 57q-16 25 -54.5 73t-98.5 89.5t-124.5 56t-127.5 14.5q-51 -1 -73.5 -13.5t-31.5 -30.5t-9 -54v-1091q0 -54 15 -78.5t43.5 -39t72.5 -14.5h86q27 0 30 -28t-39 -28h-557q-30 0 -34.5 28t34.5 28h73 q45 0 73 17t39.5 41t11.5 71v1067q0 62 -21.5 84.5t-44.5 31.5t-60 9q-14 0 -32 -1q-63 -5 -104 -18.5t-92.5 -55.5t-80 -74t-55.5 -73l-42 -65q-21 -33 -37 -25.5t-16 22.5q0 4 1 8z"/>
<glyph glyph-name="U" horiz-adv-x="1702" unicode="U" d="M360 369v832q0 37 -11 59t-36.5 40t-77.5 18h-80q-27 0 -27 30t27 30h550q35 0 35.5 -30t-35.5 -30h-58q-68 0 -89.5 -15t-33.5 -37t-12 -62v-824q0 -86 36.5 -177t127.5 -138t197 -47h4q123 0 223 58t120 129.5t21 158.5l2 831q0 49 -9 71.5t-25.5 37t-61.5 14.5h-69 q-44 0 -41.5 30t41.5 30h390q33 0 33 -34q0 -26 -33 -26h-55q-60 0 -76.5 -12t-24 -30t-7.5 -58v-868q0 -109 -19.5 -179.5t-82.5 -128.5t-143 -90t-183 -39q-24 -2 -48 -2q-73 0 -162 18.5t-169 83t-109 152.5t-29 204z"/>
<glyph glyph-name="V" horiz-adv-x="1500" unicode="V" d="M774 171l347 1031q10 31 10 53q0 8 -3 25t-21.5 28t-61.5 11h-86q-34 0 -36.5 30t36.5 30h466q38 0 38 -30t-38 -30h-72q-61 0 -86.5 -17t-38 -35.5t-26.5 -59.5l-428 -1230q-17 -47 -32 -47l-16 -1q-30 0 -45 42l-461 1264q-8 19 -25 39.5t-37.5 32.5t-53.5 12h-49 q-36 0 -36 30t36 30h504q38 0 40.5 -30t-40.5 -30l-99 -1q-43 -1 -57 -17t-15.5 -43.5t11.5 -60.5z"/>
<glyph glyph-name="W" d="M744 195l253 935l-29 96q-9 28 -28 46t-44 28.5t-58 10.5h-52q-35 0 -33.5 31t33.5 31h488q31 0 32.5 -31t-32.5 -31h-80q-48 0 -61.5 -10.5t-14.5 -23.5t-1 -16q0 -22 11 -60l284 -1000l256 988q9 37 8 62t-17 42.5t-79 17.5h-66q-40 0 -38.5 31t38.5 31h426 q35 0 35 -30q0 -32 -35 -32h-70q-35 0 -58 -11.5t-40.5 -28.5t-23.5 -43l-333 -1261q-12 -45 -42 -45h-16q-16 1 -27 42l-293 1029l-282 -1002q-20 -69 -49 -69q-1 0 -16.5 1.5t-32.5 59.5l-349 1117q-28 87 -41 118t-44.5 62t-60.5 31h-49q-33 0 -33 29q0 33 33 33h488 q31 0 32.5 -31t-32.5 -31h-63q-59 0 -77 -16t-21 -31t-3 -22q0 -21 10 -52z" unicode="W"/>
<glyph glyph-name="X" horiz-adv-x="1542" unicode="X" d="M780 786l284 431q14 21 13.5 48t-10.5 38.5t-61 11.5h-86q-31 0 -30.5 31t30.5 31h467q32 0 32.5 -31t-32.5 -31h-75q-35 0 -65.5 -14.5t-56.5 -37.5t-47 -55l-322 -485l361 -569q39 -63 65 -89t58.5 -45.5t67.5 -19.5h71q33 0 33 -34q0 -26 -33 -26h-565q-32 0 -33.5 30 t33.5 30h83q42 0 60 21.5t18 42.5t-23 58l-292 455l-301 -456q-27 -39 -27 -67q0 -29 16 -41.5t75 -12.5h85q28 0 26.5 -30t-26.5 -30h-480q-34 0 -34 32q0 28 34 28h66q36 0 64 10t53 31t55 67l351 537l-367 571q-25 38 -44.5 52.5t-55 30.5t-51.5 16h-54q-28 0 -28.5 31 t30.5 31h497q35 0 35.5 -31t-35.5 -31h-61q-43 0 -55.5 -16t-13 -35t24.5 -55z"/>
<glyph glyph-name="Y" horiz-adv-x="1594" unicode="Y" d="M849 602l357 625q21 37 9.5 55t-34 26.5t-82.5 8.5h-80q-30 0 -30.5 31t30.5 31h473q31 0 31 -30q0 -32 -31 -32h-46q-40 0 -75 -15t-57 -34t-42 -54l-402 -702l1 -417q0 -39 9 -54.5t30.5 -29t70.5 -13.5h60q42 0 38 -30t-38 -30h-481q-36 0 -40 30t37 30h63 q39 0 57.5 13.5t29 33t11.5 46.5l1 419l-395 674q-25 41 -47 65t-59 46t-71 22h-38q-33 0 -33 31t33 31h552q28 0 27.5 -31t-27.5 -31h-104q-55 0 -72 -15t-19.5 -33t20.5 -56z"/>
<glyph glyph-name="Z" horiz-adv-x="1286" unicode="Z" d="M1005 1321h-359q-81 0 -148.5 -24t-112 -57.5t-84.5 -78t-68 -96.5l-33 -60q-16 -30 -38 -24.5t-17 27.5l80 369h948q15 0 20.5 -16t-17.5 -50l-899 -1316h347q105 0 176 15t136 61t108.5 97t81.5 115l33 56q13 23 31 18t18 -21q0 -6 -2 -13l-94 -382h-1000q-29 0 -29 22 q0 17 21 47z"/>
<glyph glyph-name="bracketleft" horiz-adv-x="559" unicode="[" d="M87 -313v1858h394v-90h-247v-1678h247v-90h-394z"/>
<glyph glyph-name="backslash" unicode="\"/>
<glyph glyph-name="bracketright" horiz-adv-x="561" unicode="]" d="M71 -311v99h246v1669h-246v90h403v-1858h-403z"/>
<glyph glyph-name="asciicircum" horiz-adv-x="661" unicode="^" d="M48 1069q157 250 211 337l64 104l285 -441l-26 -2l-253 215l-246 -207z"/>
<glyph glyph-name="underscore" horiz-adv-x="1024" unicode="_" d="M4 -175v86h1005v-86h-1005z"/>
<glyph glyph-name="grave" horiz-adv-x="561" unicode="`" d="M468 717l-27 34q-25 31 -59.5 85.5t-114.5 180.5t-92 162.5t-12 58.5q0 16 8 38t27.5 30t30.5 8q20 0 43 -14q24 -15 37.5 -40t26.5 -59l75 -213l69 -182l25 -72q1 -5 1 -9q0 -11 -7 -16t-12 -5q-9 0 -19 13z"/>
<glyph glyph-name="a" horiz-adv-x="1023" unicode="a" d="M698 178v312q-49 -5 -111.5 -14t-169.5 -58t-158.5 -120t-51.5 -134q0 -67 53.5 -114t134.5 -47q1 0 42.5 0.5t123.5 55t101 77.5zM697 548q-3 70 -5 131t-18 111.5t-56.5 80.5t-121.5 36q-17 1 -33 1q-52 0 -95 -14.5t-66.5 -45t-24.5 -76.5v-50q-3 -32 -23 -57t-62 -25 h-6q-33 1 -54 22.5t-21 70.5q0 48 36 97q37 52 97.5 83t126.5 45.5t134 15.5q84 0 151 -24.5t110 -74.5t48.5 -112t6.5 -157l1 -492q0 -68 13 -79.5t31 -6.5l28 17q26 11 36.5 -1t10.5 -22q0 -13 -11 -31q-13 -21 -57.5 -45t-79.5 -24q-1 0 -19 0.5t-43 24.5q-33 30 -33 74 v7v72q-35 -32 -70 -61.5t-85 -57t-110.5 -44.5t-105.5 -17q-42 0 -87 10q-84 18 -131 71t-47 133q0 21 3 44q12 97 80 167t150.5 110t175.5 61t166 27z"/>
<glyph glyph-name="b" horiz-adv-x="1160" unicode="b" d="M346 696v-445q0 -76 30 -136t98.5 -98.5t144.5 -38.5q24 0 50 3q89 11 158 65t109.5 160.5t40.5 234.5v6q-2 117 -36 213.5t-103 168t-165 80.5q-9 1 -18 1q-66 0 -141 -40.5t-120 -106.5zM346 1415v-619q37 42 85.5 86.5t127.5 67t134 22.5q47 0 94 -11q79 -21 164 -87 t127.5 -172.5t42.5 -240.5q0 -15 -1 -30q-4 -122 -40 -214.5t-91.5 -146.5t-86 -77.5t-62.5 -34.5t-60.5 -20t-62 -13t-58.5 -4h-10q-57 0 -113.5 16.5t-80.5 36.5l-103 73q-26 -39 -45 -64t-41 -46.5t-32 -21.5q-1 0 -6.5 1t-5.5 18v1232q0 41 -18 63.5t-46 34.5t-69 12 h-41q-34 0 -34 24q0 2 2 18t37 19l47 3q48 3 112 18.5t90 31.5z"/>
<glyph glyph-name="c" horiz-adv-x="906" unicode="c" d="M800 197l30 50q15 26 32 18t17 -21q0 -11 -8 -27l-19 -36q-33 -62 -81 -121t-124.5 -94t-154.5 -36h-9q-101 0 -186.5 45t-141 105t-87.5 143t-32 193q0 19 1 39q5 113 39 204t103 171t159 114t178 34q14 0 29 -1q122 -8 197.5 -64t82.5 -94t7 -53q0 -35 -21.5 -59.5 t-40.5 -25.5t-21 -1q-33 0 -57 21.5t-25 57.5l3 41q0 40 -34.5 79t-124.5 39q-81 -1 -149.5 -42.5t-125 -154t-56.5 -254.5v-24q4 -148 58 -237.5t125 -133t154 -43.5h4q100 0 171 53.5t108 114.5z"/>
<glyph glyph-name="d" horiz-adv-x="1142" unicode="d" d="M826 138v603q-22 27 -51.5 61t-97.5 72t-139 38h-11q-76 -4 -149.5 -54.5t-122 -156t-52 -186t-3.5 -97.5q0 -121 40 -214q42 -98 121 -157t172 -63q12 -1 24 -1q85 0 145.5 40.5t92.5 78.5zM826 824v373q0 33 -9.5 54.5t-43.5 33t-69 11.5l-48 -1q-40 -1 -34.5 25.5 t38.5 28.5l58 3q33 1 67 7.5t70.5 20t58.5 27.5l36 22v-1288q0 -55 9.5 -73.5t30.5 -32t62 -13.5h31q36 0 36 -28q0 -29 -33 -29h-260v79q-31 -28 -53.5 -45.5t-77 -45t-165.5 -27.5h-6q-88 0 -172 28.5t-159.5 99t-106.5 172.5t-31 201v12q2 99 32 193.5t92.5 175.5 t146 121.5t188.5 40.5h5q82 -1 152 -28.5t102 -62.5z"/>
<glyph glyph-name="e" horiz-adv-x="904" unicode="e" d="M718 557q-3 53 -8 102.5t-29.5 105t-84 97t-126.5 41.5h-9q-68 -4 -122 -46.5t-92 -112.5t-48 -135l-9 -52h528zM868 505h-683q-4 -50 -4 -113q0 -8 0.5 -49t35.5 -118.5t90.5 -124t129.5 -60.5q34 -7 67 -7q48 0 107 21t97.5 53t71.5 73l30 37q18 23 37 14.5t1 -39.5 l-22 -38q-20 -34 -61.5 -84.5t-111 -91.5t-159.5 -47q-14 -1 -28 -1q-84 0 -167.5 38.5t-151 123t-90.5 185t-23 178.5q0 42 5 83q19 149 86 243t146.5 139.5t189.5 51.5h21q74 0 138.5 -26t124 -95.5t88 -151.5t32.5 -150z"/>
<glyph glyph-name="f" horiz-adv-x="690" unicode="f" d="M233 961q3 71 10.5 132.5t41.5 138.5t92 119t129 48q11 1 21 1q41 0 76.5 -14.5t60.5 -42.5t25 -60q0 -31 -20.5 -54t-53.5 -25.5t-59 17.5q-20 14 -23.5 25t-6 38.5t-18 39.5t-37.5 9q-18 -3 -45 -25.5t-49.5 -78t-22.5 -132.5v-136h260q25 0 25 -25t-25 -25h-258 l-2 -805v-7q0 -41 12 -59.5t35.5 -30.5t88.5 -12h74q23 0 24.5 -26t-24.5 -26h-500q-33 0 -33.5 26t33.5 26h64q40 0 60.5 10t32.5 29.5t12 72.5v802h-194q-28 0 -28 23q0 27 25 27h197z"/>
<glyph glyph-name="g" horiz-adv-x="1036" unicode="g" d="M314.5 385.5q70.5 -72.5 125.5 -73.5h58q110 0 180.5 71.5t70.5 222.5q-1 49 -16 118.5t-73.5 126t-156.5 56.5h-3q-83 -2 -146 -52t-86.5 -135t-23.5 -119q0 -143 70.5 -215.5zM427 -324q96 1 188 4.5t173.5 53t81.5 104.5v7q-5 46 -67.5 84t-180 61t-148.5 28l-65 10 q-37 -14 -90 -35t-97 -66t-44 -96v-11q5 -67 68 -104.5t181 -39.5zM290 291q-37 19 -76 45.5t-76.5 97t-37.5 150.5q0 15 1 31q7 100 65.5 180.5t146 124t195.5 43.5h5q80 -2 144.5 -26t90.5 -46l42 -35q30 27 55.5 48.5t55.5 33.5t63 12q11 0 39.5 -3t60 -32.5t31.5 -65.5 v-9q-3 -27 -21.5 -45.5t-48 -22.5t-56.5 23l-30 38q-18 18 -37 20q-25 2 -49 -17l-25 -19q15 -22 40 -64t26 -139q0 -92 -36.5 -167.5t-91.5 -117.5t-133 -57.5t-145 -15.5h-23l-71 2q-31 -10 -69 -20.5t-44.5 -32t2.5 -35.5q9 -16 52 -22.5t180.5 -31t212 -39.5t151 -48.5 t107 -77t30.5 -87.5q-2 -66 -58 -117t-137.5 -79t-165.5 -38.5t-192 -10.5h-20q-128 0 -221.5 18.5t-141 69t-47.5 103.5q0 50 25 89q30 46 92.5 75.5t102.5 43.5l53 18q-41 13 -72 24t-49.5 31t-18.5 53q0 9 3.5 38t58.5 65z"/>
<glyph glyph-name="h" horiz-adv-x="1257" unicode="h" d="M337 1420v-633q41 39 91 81.5t123.5 69t144.5 29.5h10q77 0 148 -28.5t118 -93.5t47 -193v-537q0 -63 14 -82t40 -30t85 -11h44q30 0 30 -31q0 -24 -30 -24h-448q-29 0 -31 27.5t31 27.5h44q37 0 58 15t32.5 37t11.5 63v525q0 82 -33 146.5t-87 96.5t-119 32 q-13 0 -27 -1q-75 -7 -140.5 -47.5t-104.5 -85.5l-52 -58v-613q0 -48 37.5 -79t92.5 -31h44q27 0 26.5 -27.5t-26.5 -27.5h-420q-27 0 -33.5 27.5t33.5 27.5h36q32 0 60 18t28 97v1098q0 38 -16.5 52t-36 18t-74.5 4h-33q-33 0 -33 29t33 29h27q34 0 74 7.5t73.5 20 t54.5 25.5z"/>
<glyph glyph-name="i" horiz-adv-x="612" unicode="i" d="M187 1292q0 44 27.5 73t49.5 29l23 1q43 0 76 -30.5t33 -79.5q0 -47 -34 -73.5t-78 -26.5l-23 1q-23 0 -49 33t-25 73zM352 969v-867q0 -45 8 -60.5t27 -28t81 -12.5h81q38 0 38 -28q0 -29 -33 -29l-494 -1h-2q-32 0 -33 26q0 32 37 32h41q60 0 82 13.5t32.5 33 t10.5 59.5v625q0 29 -14.5 49t-37.5 30.5t-67 10.5h-35q-27 0 -28.5 25t24.5 27l39 3q38 2 67.5 8t66.5 21t59 30z"/>
<glyph glyph-name="j" horiz-adv-x="559" unicode="j" d="M263 1391q24 -1 49.5 -14t39 -37t14 -53.5t-12.5 -51.5q-14 -24 -39 -38t-51 -14q-28 -1 -52.5 13t-38 38.5t-14 52t14.5 52.5q14 25 39 38.5t51 13.5zM365 973l1 -970q0 -89 -15.5 -157.5t-50.5 -122t-91.5 -81.5t-104.5 -28h-13q-61 3 -116 46.5t-57.5 73.5t-2.5 37 q0 42 21.5 61.5t48.5 19.5q11 0 23 -3q31 -8 45.5 -27.5t29 -64t32.5 -53.5t28 -9q20 0 51.5 22t40.5 103t9 137l-2 725q-1 76 -11.5 100t-35 34t-62.5 13l-42 3q-31 2 -26.5 24.5t26.5 25.5l53 6q43 4 77.5 12.5t62.5 20.5t40 22z"/>
<glyph glyph-name="k" horiz-adv-x="1215" unicode="k" d="M342 1411v-987l387 401q20 21 16.5 42.5t-13 30t-33.5 8.5h-70q-33 0 -31 24.5t31 24.5h423q29 0 31 -24.5t-28 -24.5h-69q-34 0 -66 -14t-57.5 -28t-48.5 -38l-225 -234l322 -452q39 -56 65.5 -84.5t58 -46t70.5 -17.5h58q29 0 31 -15.5t2 -17.5q0 -23 -33 -23h-448 q-28 0 -28 28t28 28h36q45 0 55 10.5t11 36t-21 56.5l-296 401l-158 -157v-257q0 -32 11 -51.5t25.5 -29t54.5 -9.5h47q31 0 32.5 -29.5t-30.5 -29.5h-2l-406 3q-33 0 -33 31q0 25 33 25h49q30 0 51 11.5t33.5 32.5t12.5 54v1064q0 49 -27 75.5t-72 26.5h-47 q-33 0 -31.5 25.5t31.5 27.5l49 3q28 1 55.5 9.5t65 26.5t57.5 33z"/>
<glyph glyph-name="l" horiz-adv-x="600" unicode="l" d="M346 1429v-1313q0 -49 12 -71t36 -34.5t87 -12.5h67q25 0 25 -23q0 -32 -25 -32h-506q-34 0 -34 31q0 24 35 24h76q36 0 60 18.5t33 42t9 62.5v1056q0 43 -10.5 69.5t-27.5 39.5t-53 15l-55 3q-30 1 -31 26t34 27l52 3q30 1 68.5 9.5t72 20t44.5 19.5z"/>
<glyph glyph-name="m" horiz-adv-x="1701" unicode="m" d="M336 981v-185q17 25 48 66t85 72t99 37.5t70 6.5q35 0 76.5 -10.5t92.5 -51.5t70 -84l25 -53q28 52 49.5 79.5t55 51.5t89.5 49t124 26q85 0 157 -48t94.5 -112.5t22.5 -153.5v-583q0 -35 10 -51t28.5 -27.5t66.5 -11.5h36q30 0 30 -28q0 -30 -30 -30h-384q-31 0 -35 29 t37 29h34q34 0 50.5 14.5t23 34.5t7.5 52l1 559q0 68 -17 127.5t-54.5 96t-110.5 36.5q-9 0 -19 -1q-93 -7 -159.5 -68t-85 -104.5t-18.5 -70.5v-564q0 -56 26 -84t76 -28h39q28 0 27.5 -29t-27.5 -29h-404q-27 0 -27.5 29t27.5 29h31q42 0 64 12.5t32 32t10 54.5l-1 580 q-1 57 -17 110t-60 91t-106 39q-46 0 -102 -29t-107.5 -103.5t-50.5 -121.5l1 -572q0 -40 10 -57t29 -26.5t55 -9.5h44q32 0 32.5 -29t-32.5 -29h-395q-27 0 -25.5 29t27.5 29h33q36 0 57.5 11.5t31 28.5t10.5 48l1 618q0 55 -11.5 77.5t-33.5 36t-63 16.5l-46 3 q-29 1 -29 30q0 19 29 21l46 2q38 1 69 8t63 23t56 32z"/>
<glyph glyph-name="n" horiz-adv-x="1172" unicode="n" d="M310 966v-232q30 54 64.5 101t113.5 90t176 43q13 0 26 -1q124 -8 192.5 -71.5t79.5 -111.5t11 -162v-534q0 -43 9.5 -55.5t31 -24.5t59.5 -12h47q31 0 31 -23q0 -32 -31 -32h-395q-34 0 -37 27.5t37 27.5h49q26 0 44 14t27.5 31t9.5 52v546q0 47 -15 106.5t-64 108 t-136 52.5h-9q-56 0 -112 -24.5t-107.5 -75.5t-76.5 -113.5t-25 -91.5v-505q0 -37 9.5 -56t28 -31.5t59.5 -12.5h44q31 0 30.5 -27.5t-30.5 -27.5h-384q-36 0 -34 27.5t34 27.5h41q26 0 45.5 12.5t27.5 28t9 57.5l1 578q0 64 -6 89.5t-24 44t-58 18.5h-55q-33 0 -33 25 t38 29l58 6q24 2 79.5 19.5t84.5 38.5z"/>
<glyph glyph-name="o" horiz-adv-x="1061" unicode="o" d="M217 448q2 -142 35 -244.5t102.5 -154t118.5 -53.5t56 -2q84 0 150 47q82 59 113.5 173t32.5 246q0 126 -30 220q-39 119 -114.5 176.5t-169.5 57.5q-93 -1 -166.5 -58.5t-100.5 -160.5t-27 -222v-25zM71 448v23q0 96 24 187t89.5 166.5t149.5 111t177 37.5h5 q91 0 183 -36.5t152 -112t90 -160.5t30 -216q-1 -81 -18 -165t-75.5 -169t-147.5 -133.5t-205 -48.5h-14q-100 2 -184.5 42t-143 115.5t-84.5 168t-28 190.5z"/>
<glyph glyph-name="p" horiz-adv-x="1141" unicode="p" d="M339 673v-492q0 -40 72.5 -110.5t191.5 -73.5h14q90 0 161.5 50t118.5 153.5t49 178.5t2 86q0 126 -37 238q-35 102 -100.5 162.5t-171.5 63.5h-8q-86 0 -152 -43.5t-103 -103.5t-37 -109zM339 993v-182q22 34 54.5 73t108.5 72t150 35h7q120 0 227 -71.5t159 -192.5 t52 -265v-16q-4 -166 -74 -291.5t-185 -175t-207 -49.5q-22 0 -43 3q-116 13 -162 58l-87 74v-237q0 -41 10.5 -66.5t29.5 -40.5t88 -15h74q31 0 28 -29t-28 -29h-489q-31 0 -31 33q0 25 31 25h52q46 0 69 12.5t34 31.5t11 75v867q0 47 -8.5 76.5t-27 49.5t-73.5 20h-5 l-42 -1q-28 -1 -27.5 26.5t31.5 30.5l41 3q36 2 63.5 9.5t66.5 25.5t69 39z"/>
<glyph glyph-name="q" horiz-adv-x="1143" unicode="q" d="M820 277v367q0 59 -14.5 105t-79.5 112.5t-190 66.5h-7q-92 -2 -166.5 -56.5t-119.5 -171.5t-45 -249v-6q0 -136 44.5 -237t113.5 -149.5t154 -51.5h14q94 0 169 53t101 108.5t26 108.5zM820 852l57 106q13 25 40 26t27 -33v-1137q0 -51 7.5 -69t24 -30.5t56.5 -11.5 l50 1q36 0 36 -28q0 -30 -36 -30h-403q-31 0 -31.5 29t31.5 29h47q36 0 56.5 10t29 25t8.5 70l-1 292q-21 -28 -53 -63t-112 -65t-164 -30h-5q-116 0 -211 50t-160 156.5t-65 295.5q0 130 37.5 230t117.5 181t165 107.5t155 26.5q91 -1 166 -35t108 -76z"/>
<glyph glyph-name="r" horiz-adv-x="873" unicode="r" d="M379 971v-260q43 65 87 126t102.5 94.5t124.5 33.5h15q68 -5 104 -40.5t36 -75.5q0 -35 -22.5 -59.5t-55.5 -24.5q-6 0 -12 1q-38 4 -59 36l-22 36q-16 18 -40 22q-4 1 -9 1q-24 0 -60.5 -19t-75.5 -62t-76 -110t-37 -111v-459q0 -54 9 -69t26.5 -26.5t66.5 -11.5h80 q31 0 32.5 -26.5t-32.5 -26.5h-461q-36 0 -36 28q0 25 36 25h38q39 0 64 12t39 33t15 65l2 554q0 138 -25.5 156.5t-88.5 18.5h-39q-40 0 -37 27t43 31l33 3q24 2 64.5 7t76 17.5t60.5 30.5z"/>
<glyph glyph-name="s" horiz-adv-x="797" unicode="s" d="M648 967l105 -268q14 -37 -9 -53.5t-41 17.5l-33 61q-29 53 -66 94t-100.5 74t-118.5 33q-15 0 -30 -2q-64 -10 -116 -62t-54.5 -86t-2.5 -40q0 -55 37 -99q30 -37 102 -66l194 -64q128 -44 192.5 -113.5t64.5 -174.5q0 -100 -66.5 -179t-176.5 -97q-37 -7 -71 -7 q-37 0 -86 12t-89 23.5t-55 2.5q-10 -6 -23.5 -33t-22.5 -28t-10 -1q-15 0 -23 25l-120 321q-5 13 -5 23q0 16 15 28.5t37 -23.5l38 -66q41 -72 87 -120t119.5 -74.5t120.5 -26.5q43 0 105.5 24t79.5 81t17 89q0 33 -12 60q-20 43 -61 71.5t-152 63t-167.5 53.5t-107 54.5 t-73.5 92.5t-23 99q0 45 18 96q32 93 110 143.5t177 53.5h6l130 -20l57 -19q24 -8 34 -3q7 3 19 25.5t20 23.5t9 1q13 0 21 -20z"/>
<glyph glyph-name="t" horiz-adv-x="721" unicode="t" d="M345 954h275q29 0 29.5 -24.5t-26.5 -24.5h-278v-682q0 -96 16 -133t38 -53.5t59 -17.5h7q35 0 80 19t80 55l34 35q15 15 28 3t13 -21q0 -7 -5 -15l-22 -32q-33 -47 -92 -88t-151 -46q-12 -1 -22 -1q-56 0 -95 24t-63.5 74.5t-24.5 139.5v739h-177q-37 0 -37 27 q0 22 31 22h28q39 0 73 13.5t65.5 46.5t48 84t20.5 115l4 73q1 24 18 25.5t20 1.5q26 0 26 -30v-329z"/>
<glyph glyph-name="u" horiz-adv-x="1142" unicode="u" d="M304 974v-727q0 -53 17.5 -108.5t64.5 -92.5t121 -37h4q74 0 148.5 42t123.5 104.5t49 113.5v481q0 22 -11 43.5t-30 34.5t-50 13h-34q-33 0 -31 26t34 29l42 3q28 2 83 16t91 42l30 22v-865q0 -50 7.5 -67t21.5 -28.5t43 -14.5l50 -5q39 -5 39 -35q0 -23 -42 -23h-243 v184q-31 -40 -64 -77t-99 -74.5t-172 -41.5q-13 -1 -26 -1q-92 0 -167 40t-99 99t-24 157l-2 512q-1 26 -12 51t-27 38t-52 13h-33q-28 0 -28 24q0 28 28 31l30 3q29 2 78 10.5t94 36.5z"/>
<glyph glyph-name="v" horiz-adv-x="1134" unicode="v" d="M595 131l214 597q31 88 31 111q0 19 -20 41.5t-73 22.5h-56q-23 0 -30 25.5t30 25.5h384q27 0 29.5 -14t2.5 -17q0 -20 -32 -20h-38q-45 0 -68 -17.5t-45.5 -50t-34.5 -67.5l-281 -806q-14 -39 -28.5 -40t-15.5 -1q-25 0 -36 29l-318 820l-22 58q-16 32 -41 53.5 t-53 21.5h-35q-36 0 -36 25.5t33 25.5h395q29 0 31 -25.5t-28 -25.5l-45 -1q-39 -1 -60 -22t-20.5 -40.5t14.5 -54.5z"/>
<glyph glyph-name="w" horiz-adv-x="1723" unicode="w" d="M621 112l209 627l-32 80q-10 24 -23 41t-31.5 28t-53.5 11h-47q-29 0 -28.5 25.5t28.5 25.5h462q32 0 32.5 -25.5t-32.5 -25.5h-61q-66 0 -77.5 -12.5t-13.5 -26t-2 -19.5q0 -21 10 -53l199 -670l271 706q9 26 -1.5 44t-26 24.5t-66.5 6.5h-61q-32 0 -34 25.5t31 25.5 h398q28 0 32 -14.5t4 -17.5q0 -19 -36 -19h-41q-50 0 -71 -11t-37 -28.5t-28 -48.5l-326 -848q-16 -40 -45 -40q-2 0 -18.5 1.5t-27.5 38.5l-214 677l-237 -680q-13 -37 -41 -37q-1 0 -16.5 1t-27.5 33l-307 803q-18 47 -34 73.5t-49 46t-72 19.5h-41q-22 0 -22 27 q0 24 24 24h473q27 0 27.5 -25.5t-27.5 -25.5h-86q-46 0 -62 -17.5t-16 -41.5q0 -22 15 -60z"/>
<glyph glyph-name="x" horiz-adv-x="1231" unicode="x" d="M610 558l184 253q21 29 16.5 46.5t-20.5 28.5t-46 11h-39q-27 0 -25.5 26t25.5 26h404q26 0 27.5 -26t-27.5 -26h-64q-54 0 -90.5 -18t-58 -38t-43.5 -50l-209 -292l282 -379q18 -26 50 -60t62.5 -52.5t75.5 -18.5h64q28 0 28 -29q0 -24 -28 -24h-448q-27 0 -28.5 26.5 t28.5 26.5h39q23 0 33 12t10.5 32t-23.5 53l-225 297l-219 -299q-23 -31 -21 -52.5t12 -32t62 -10.5h78q31 0 32.5 -26.5t-32.5 -26.5h-415q-32 0 -33.5 26.5t36.5 26.5h53q31 0 61.5 14.5t55.5 40.5t62 76l232 318l-270 362q-24 31 -42.5 47t-56 33t-62.5 17h-55 q-30 0 -30 26t30 26h461q26 0 27.5 -26t-27.5 -26h-44q-32 0 -45 -16t-12.5 -33.5t21.5 -44.5z"/>
<glyph glyph-name="y" horiz-adv-x="1208" unicode="y" d="M622 156l254 639q13 34 13.5 52.5t-16 34t-49.5 15.5h-80q-29 0 -28.5 27.5t28.5 27.5h406q31 0 31 -24q0 -31 -31 -31h-50q-33 0 -63.5 -14.5t-46.5 -34.5t-39 -74l-373 -887q-36 -84 -70.5 -139.5t-81 -83t-96.5 -35.5q-23 -4 -45 -4q-27 0 -60.5 9t-56 36.5 t-22.5 56.5q0 3 1 20.5t20.5 38t58.5 20.5q34 -1 70 -25l43 -32q25 -17 38.5 -17.5t14.5 -0.5q27 0 62 45q22 27 58 113l25 61l-287 820q-20 55 -43.5 78.5t-44.5 36t-54 12.5h-49q-37 0 -37 24q0 31 37 31h483q33 0 36 -27.5t-36 -27.5h-83q-47 0 -63 -14t-18 -36.5 t12 -58.5z"/>
<glyph glyph-name="z" horiz-adv-x="905" unicode="z" d="M708 904l-224 1q-74 0 -136.5 -23.5t-107.5 -66t-74 -93.5l-36 -64q-22 -39 -41 -31t-14 34l51 293h728q20 0 24 -9t4 -13q0 -15 -20 -42l-654 -901l229 1q68 0 125.5 13.5t102 42t74 67.5t52.5 92l21 50q8 20 32 18t21 -27l-44 -306h-749q-23 0 -27 8.5t-4 12.5 q0 16 23 47z"/>
<glyph glyph-name="braceleft" horiz-adv-x="904" unicode="{" d="M243 594v43q34 12 66.5 26t63.5 40t48.5 62.5t20 70.5t2.5 51q0 39 -6 86q-6 39 -19.5 112t-15.5 100t-2 41q0 27 4 55q6 47 24 89.5t54.5 83t82 68t88.5 34.5l83 16v-29q-64 -14 -95 -28t-61 -39.5t-47.5 -59.5t-21.5 -71t-4 -61q0 -40 6 -89l16 -108q9 -67 9 -119v-18 q-2 -41 -11 -81t-33.5 -84t-56 -73.5t-69.5 -49.5l-86 -47q82 -33 120.5 -60t63 -60.5t41 -72.5t21 -73t5 -65.5t0.5 -41.5q0 -39 -2 -63l-10 -100l-8 -81q-6 -57 -6 -89q0 -14 1 -24q4 -36 20 -68.5t37 -53.5t46 -37.5t38 -29.5t9 -22t-23 -10h-3q-19 0 -61 25t-55.5 35.5 t-40 42t-41 56.5t-23.5 62t-9 85v10q0 51 12 134l24 158q8 59 8 98q-1 67 -24.5 110.5t-41.5 49.5z"/>
<glyph glyph-name="bar" horiz-adv-x="451" unicode="|" d="M174 -398v2027h98v-2027h-98z"/>
<glyph glyph-name="braceright" horiz-adv-x="904" unicode="}" d="M186 1540v26q51 -11 89.5 -22.5t74.5 -35t65 -59t44 -72.5t23 -79.5t9 -71t1 -35.5q0 -45 -11 -100l-24 -105q-9 -47 -9 -99v-10q0 -63 13 -103.5t29 -58.5t47.5 -40.5t42.5 -23.5l53 -10v-50q-54 -13 -81 -27t-49.5 -40.5t-38 -68.5t-16.5 -71.5t-1 -37.5q0 -47 8 -108 q5 -49 11 -82l16 -95q4 -33 4 -63q0 -15 -1 -30q-4 -50 -16.5 -90.5t-31.5 -70.5t-48.5 -58t-57.5 -45l-47 -28q-18 -12 -28 -12q-2 0 -8 1t-8 9.5t12 21.5q5 4 29 20.5t46 42.5t37.5 61t19.5 62.5t4 61.5q-1 30 -6.5 94t-9.5 117t-4 89q0 21 1 40q3 67 17 109t44.5 92.5 t53.5 62.5l105 64q-47 25 -75.5 42t-47.5 35.5t-46 64.5t-40.5 90t-16 81.5t-2.5 58.5q0 30 3 60q2 27 13.5 107.5t12.5 107.5t1 33q0 40 -9 70q-8 26 -31.5 64.5t-56.5 63.5t-60 34z"/>
<glyph glyph-name="asciitilde" horiz-adv-x="825" unicode="~" d="M102 1212q11 17 30.5 43t41 50.5t37 38.5t37 24t40.5 10q19 -1 37 -10.5t78 -46.5t98.5 -53t64.5 -16h6q39 2 74 30t60 55t34 35t12 8.5t4 0.5q6 0 10.5 -4.5t4.5 -12.5q0 -7 -3 -18q-5 -16 -15 -34.5t-27.5 -42.5t-43.5 -56t-61 -64.5t-68 -35.5q-20 -3 -41.5 4.5 t-82.5 46t-94 56.5t-61 19q-26 0 -49 -10.5t-40 -23t-41 -35t-36 -39.5t-17 -18t-6 -1q-8 0 -14 7.5t-6 14.5q0 12 14 38t23 40z"/>
<glyph glyph-name="uni00A0" unicode=" "/>
<glyph glyph-name="exclamdown" unicode="¡"/>
<glyph glyph-name="cent" unicode="¢"/>
<glyph glyph-name="sterling" unicode="£"/>
<glyph glyph-name="currency" d="M1032 301q142 1 230.5 88.5t90.5 154.5t2 72q0 124 -86.5 227.5t-158.5 104.5h-74q-144 0 -237.5 -99.5t-93.5 -232.5q0 -5 2 -77t97.5 -155t221.5 -83h6zM497 112l195 200q-23 23 -48 53t-48.5 100t-23.5 147q0 74 24.5 147.5t65.5 127.5l23 31l-188 187l52 61l201 -185 q23 17 54 36.5t92.5 37t135.5 17.5h40q40 -1 108.5 -21.5t111.5 -53.5l25 -19l191 188l66 -61l-194 -191q19 -23 45 -58.5t46 -104.5t20 -130q0 -10 -2 -51t-26.5 -109.5t-59.5 -107.5l-31 -36l200 -193l-63 -64l-203 202q-26 -18 -59.5 -37.5t-93.5 -37t-116 -17.5 q-2 0 -31.5 0.5t-92.5 16.5t-105 42l-47 27l-207 -198z" unicode="¤"/>
<glyph glyph-name="yen" unicode="¥"/>
<glyph glyph-name="brokenbar" unicode="¦"/>
<glyph glyph-name="section" d="M920 861q-36 -13 -71.5 -28.5t-78 -60.5t-44 -71t-1.5 -29q0 -46 37 -88q29 -35 138 -80l141 -64l75 -32q29 5 58.5 13.5t72.5 34t66.5 59t23.5 72.5q0 4 -1.5 27.5t-32.5 57.5t-102.5 62.5t-172.5 76.5zM842 899q-32 12 -84.5 36t-92 77t-39.5 118q0 22 4 46 q8 58 42.5 103.5t80 69.5t104 41t148.5 21q14 1 28 1q98 0 193 -26.5t155 -86.5t61.5 -95.5t1.5 -41.5q0 -56 -27.5 -83.5t-66.5 -27.5l-21 1q-21 0 -43.5 21.5t-22.5 57.5v9l8 44q6 33 -3 58q-6 14 -28.5 40.5t-82 42.5t-121.5 16h-8q-101 -2 -172.5 -42.5t-78 -79 t-6.5 -51.5q0 -45 27 -81q25 -34 87 -59.5t212 -94.5l197 -89q115 -53 149.5 -103t34.5 -110v-13q-4 -52 -34.5 -100t-85 -79t-112.5 -48l-56 -17q57 -23 115 -50.5t98 -83t40 -120.5q0 -23 -4 -47q-16 -89 -91.5 -153.5t-173 -88t-186.5 -23.5q-14 0 -29 1q-136 4 -228 51 t-135 114t-43 129q0 54 25 79.5t50 27t28 1.5q41 0 66.5 -25.5t25.5 -63.5v-8q-1 -10 -10 -39.5t-9.5 -47.5t14.5 -42q23 -42 80 -73t155 -33h13q67 0 145 19t119 67.5t41 109.5q0 51 -26.5 86.5t-107 75.5t-230.5 105t-217.5 104t-101 85.5t-33.5 102.5q0 14 2 28 q6 58 57.5 122.5t116.5 84.5z" unicode="§"/>
<glyph glyph-name="dieresis" d="M549 1345q46 -2 80.5 -34.5t35.5 -80.5q0 -46 -32 -80t-59 -34l-29 -1q-53 0 -81 34t-28 86.5t34.5 81t75.5 28.5h3zM1475 1348q46 -2 80.5 -34.5t35.5 -80.5q0 -46 -32 -80.5t-85 -34.5h-28q-28 1 -56.5 34.5t-28.5 84.5q0 54 35 82.5t76 28.5h3z" unicode="¨"/>
<glyph glyph-name="copyright" unicode="©"/>
<glyph glyph-name="ordfeminine" unicode="ª"/>
<glyph glyph-name="guillemotleft" unicode="«"/>
<glyph glyph-name="logicalnot" unicode="¬"/>
<glyph glyph-name="uni00AD" unicode="­"/>
<glyph glyph-name="registered" unicode="®"/>
<glyph glyph-name="macron" unicode="¯"/>
<glyph glyph-name="degree" d="M490 967h3q76 0 131.5 53t56.5 137q0 82 -54.5 137t-131.5 55q-2 0 -43.5 -1t-96.5 -57.5t-55 -131.5v-13q4 -83 64 -131t126 -48zM493 1428q103 -1 185.5 -75.5t82.5 -190.5q0 -118 -78.5 -194t-189.5 -76h-57q-56 1 -133.5 75.5t-77.5 195.5t86 193t182 72z" unicode="°"/>
<glyph glyph-name="plusminus" d="M572 720l402 1v392h94v-392l404 -2v-81h-404l1 -384h-95v384h-401zM560 162h901v-85h-901v85z" unicode="±"/>
<glyph glyph-name="uni00B2" unicode="²"/>
<glyph glyph-name="uni00B3" unicode="³"/>
<glyph glyph-name="acute" unicode="´"/>
<glyph glyph-name="uni00B5" unicode="µ"/>
<glyph glyph-name="paragraph" unicode="¶"/>
<glyph glyph-name="periodcentered" d="M1021 737q52 -1 84.5 -34t32.5 -82q-1 -49 -34 -82.5t-58 -34.5h-25q-48 0 -82 32.5t-34 85.5t34 84t82 31z" unicode="·"/>
<glyph glyph-name="cedilla" unicode="¸"/>
<glyph glyph-name="uni00B9" unicode="¹"/>
<glyph glyph-name="ordmasculine" unicode="º"/>
<glyph glyph-name="guillemotright" unicode="»"/>
<glyph glyph-name="onequarter" unicode="¼"/>
<glyph glyph-name="onehalf" unicode="½"/>
<glyph glyph-name="threequarters" unicode="¾"/>
<glyph glyph-name="questiondown" unicode="¿"/>
<glyph glyph-name="Agrave" unicode="À"/>
<glyph glyph-name="Aacute" unicode="Á"/>
<glyph glyph-name="Acircumflex" unicode="Â"/>
<glyph glyph-name="Atilde" unicode="Ã"/>
<glyph glyph-name="Adieresis" unicode="Ä"/>
<glyph glyph-name="Aring" unicode="Å"/>
<glyph glyph-name="AE" unicode="Æ"/>
<glyph glyph-name="Ccedilla" unicode="Ç"/>
<glyph glyph-name="Egrave" unicode="È"/>
<glyph glyph-name="Eacute" unicode="É"/>
<glyph glyph-name="Ecircumflex" unicode="Ê"/>
<glyph glyph-name="Edieresis" unicode="Ë"/>
<glyph glyph-name="Igrave" unicode="Ì"/>
<glyph glyph-name="Iacute" unicode="Í"/>
<glyph glyph-name="Icircumflex" unicode="Î"/>
<glyph glyph-name="Idieresis" unicode="Ï"/>
<glyph glyph-name="Eth" unicode="Ð"/>
<glyph glyph-name="Ntilde" unicode="Ñ"/>
<glyph glyph-name="Ograve" unicode="Ò"/>
<glyph glyph-name="Oacute" unicode="Ó"/>
<glyph glyph-name="Ocircumflex" unicode="Ô"/>
<glyph glyph-name="Otilde" unicode="Õ"/>
<glyph glyph-name="Odieresis" unicode="Ö"/>
<glyph glyph-name="multiply" d="M633 914l75 81l314 -299l298 304l78 -72l-299 -306l306 -295l-74 -79l-310 294l-307 -298l-77 76l303 301z" unicode="×"/>
<glyph glyph-name="Oslash" unicode="Ø"/>
<glyph glyph-name="Ugrave" unicode="Ù"/>
<glyph glyph-name="Uacute" unicode="Ú"/>
<glyph glyph-name="Ucircumflex" unicode="Û"/>
<glyph glyph-name="Udieresis" unicode="Ü"/>
<glyph glyph-name="Yacute" unicode="Ý"/>
<glyph glyph-name="Thorn" unicode="Þ"/>
<glyph glyph-name="germandbls" unicode="ß"/>
<glyph glyph-name="agrave" d="M1280 325l1 222q0 61 -17.5 114t-74.5 109t-176 58q-104 0 -170.5 -49.5t-83.5 -93.5t-17 -98v-314q0 -45 10 -94t66.5 -100.5t158.5 -53.5h13q71 0 133.5 32.5t96.5 81t46.5 96t13.5 90.5zM1274 814l122 87l2 -910l-118 -1v95q-11 -15 -24 -30t-49 -39.5t-93.5 -42.5 t-128.5 -18h-8q-84 0 -151 27t-120.5 87.5t-65.5 115t-12 127.5v273q0 78 35.5 142.5t103.5 106.5t133 52t112 10q30 0 60 -3q103 -11 145 -41zM738 1292h210l115 -309q1 -4 1 -8q0 -11 -6.5 -18.5t-11.5 -7.5q-14 0 -38 29z" unicode="à"/>
<glyph glyph-name="aacute" d="M1278 378l1 222q0 60 -17.5 113.5t-74 109t-176.5 57.5h-4q-103 0 -168 -49t-82 -93.5t-17 -97.5v-314q0 -46 10 -95t66.5 -100.5t158.5 -53.5h13q71 0 133 32.5t96.5 81t47 96t13.5 91.5zM1272 866l122 87l2 -911h-118v95q-12 -15 -25.5 -30.5t-47 -39t-94 -42.5 t-129.5 -19h-7q-82 0 -150 27.5t-121.5 88t-65.5 115t-12 127.5v273q0 78 35.5 142.5t104 107t132.5 52.5t112 10q30 0 60 -3q105 -12 145 -41zM1064 1350l217 -1l-271 -326q-20 -24 -36 -24q-4 0 -12.5 3.5t-8.5 18.5q0 7 3 17z" unicode="á"/>
<glyph glyph-name="acircumflex" unicode="â"/>
<glyph glyph-name="atilde" unicode="ã"/>
<glyph glyph-name="adieresis" unicode="ä"/>
<glyph glyph-name="aring" unicode="å"/>
<glyph glyph-name="ae" unicode="æ"/>
<glyph glyph-name="ccedilla" unicode="ç"/>
<glyph glyph-name="egrave" d="M756 589h426q-3 27 -5 60.5t-16.5 69t-61.5 61.5t-105 26q-13 0 -58 -4t-95.5 -42.5t-64.5 -99.5zM1340 524h-592v-38t0.5 -44t13.5 -92t55 -133t104.5 -98.5t141.5 -31.5h5q64 0 105 19t69 49t48 75.5t28 73.5t18.5 42.5t20 12.5t12 -16.5t2.5 -24.5v-7 q-3 -21 -13 -55.5t-30 -81.5t-52.5 -91t-95.5 -82.5t-154 -38.5h-18q-146 4 -226 83t-113.5 170.5t-34 153.5t-0.5 65q0 116 32 207q39 110 127.5 186t214.5 76h7q164 -3 235.5 -99t81.5 -204zM711 1289h215l115 -298q3 -8 3 -16q0 -13 -7.5 -18.5t-12.5 -5.5q-15 0 -38 27z " unicode="è"/>
<glyph glyph-name="eacute" d="M773 652h426q-3 27 -5 60t-16.5 69t-61 62t-105.5 26q-13 0 -58.5 -4t-95.5 -42.5t-64 -99.5zM1357 587l-592 -1q-1 -20 -1 -38t1 -44t14 -92t55 -132.5t104 -98t142 -31.5h5q66 0 106 18.5t68 49.5t47.5 75t28 72.5t19 43.5t20 13.5t12 -16.5t2.5 -25v-7 q-3 -20 -13.5 -56.5t-29.5 -81t-53 -90t-95.5 -84t-153.5 -38.5h-18q-146 5 -226 84t-113.5 170.5t-34 153t-0.5 65.5q0 115 32 207q39 110 127.5 186t214.5 76h7q164 -3 235.5 -99t81.5 -204zM1064 1349l217 1l-253 -304q-10 -12 -26.5 -26t-28.5 -14q-4 0 -13 3.5t-9 18.5 q0 12 8 34z" unicode="é"/>
<glyph glyph-name="ecircumflex" d="M776 649h426q-3 27 -5 60.5t-16.5 69t-61.5 61.5t-105 26q-13 0 -58 -4t-95.5 -42.5t-64.5 -99.5zM1360 585l-592 -1v-38t0.5 -44.5t13.5 -91.5t55 -132.5t104 -99t142 -31.5h5q65 0 105.5 19t68.5 49t47.5 74.5t28 73.5t19 43.5t20 12.5t12 -16.5t2.5 -24.5v-7 q-3 -20 -13 -55.5t-30 -81t-53 -91t-95 -84t-154 -38.5h-18q-146 5 -226 84t-113.5 170.5t-34 153.5t-0.5 65q0 116 32 207q39 110 127.5 186t214.5 76h7q164 -3 235.5 -98.5t81.5 -204.5zM1013 1226l-228 -194q-22 -18 -36 -18q-7 0 -13 5t-6 14t7 22l181 291h187l198 -298 q4 -7 4 -12q0 -9 -13 -16t-40 15z" unicode="ê"/>
<glyph glyph-name="edieresis" unicode="ë"/>
<glyph glyph-name="igrave" d="M861 1286h215l114 -298q3 -9 3 -16q0 -13 -13 -23t-44 26zM962 855l114 -1l1 -891h-115v892z" unicode="ì"/>
<glyph glyph-name="iacute" d="M947 1317l217 1l-253 -305q-10 -12 -28.5 -28t-33 -10.5t-14.5 20.5q0 13 8 35zM959 889l113 -1v-884h-114z" unicode="í"/>
<glyph glyph-name="icircumflex" unicode="î"/>
<glyph glyph-name="idieresis" unicode="ï"/>
<glyph glyph-name="eth" unicode="ð"/>
<glyph glyph-name="ntilde" unicode="ñ"/>
<glyph glyph-name="ograve" d="M748 1284l215 -1l115 -297q9 -25 -7 -37.5t-47 23.5zM754 347q12 -140 81 -241.5t195 -101.5h2q127 0 194 102t74.5 193t7.5 135q0 72 -11 129q-22 111 -92 191t-122.5 81t-53.5 1q-101 0 -182 -90q-65 -73 -80.5 -164.5t-15.5 -161.5q0 -37 3 -73zM1032 896 q115 -1 224.5 -69.5t149 -184.5t39.5 -216q0 -43 -6 -87q-19 -130 -81.5 -223t-155.5 -131t-170 -38h-4q-105 0 -198 52t-147 144.5t-60.5 171t-6.5 105.5q0 104 38 220.5t149 186t229 69.5z" unicode="ò"/>
<glyph glyph-name="oacute" d="M745 380q12 -139 81 -241.5t195 -102.5h2q127 0 194 102t74.5 193t7.5 135q0 73 -11 130q-22 111 -92.5 191t-122.5 81t-54 1q-101 0 -181 -91q-65 -73 -80.5 -164.5t-15.5 -161.5q0 -36 3 -72zM1023 929q115 -1 225 -70t149 -184.5t39 -214.5q0 -43 -6 -88 q-18 -130 -81.5 -224t-155 -131t-170.5 -37h-4q-106 0 -198 51t-146.5 144.5t-61 172t-6.5 105.5q0 104 38 220.5t149 186t229 69.5zM1065 1332l220 1l-271 -328q-12 -14 -27 -14q-4 0 -14 2.5t-10 15.5q0 4 2 10z" unicode="ó"/>
<glyph glyph-name="ocircumflex" unicode="ô"/>
<glyph glyph-name="otilde" unicode="õ"/>
<glyph glyph-name="odieresis" unicode="ö"/>
<glyph glyph-name="divide" d="M905 955v8q0 40 28.5 76t56 37t29.5 1q50 0 83 -32t33 -81v-9q-3 -47 -35.5 -78.5t-55.5 -32.5h-26q-47 0 -79 32t-34 79zM905 267v8q0 40 28.5 76t56 37t29.5 1q50 0 83 -32t33 -81v-9q-3 -47 -35.5 -78.5t-56.5 -32t-25 -0.5q-47 0 -79 32t-34 79zM588 667l853 1v-105 h-853v104z" unicode="÷"/>
<glyph glyph-name="oslash" unicode="ø"/>
<glyph glyph-name="ugrave" d="M781 852v-540q0 -67 8.5 -115t47.5 -87t121 -44q11 -1 22 -1q69 0 140 35.5t122 89.5l20 21v409q0 65 -7 102t-32.5 59.5t-63.5 29t-47 15t-6 20t19 11.5h248v-570q0 -31 5 -84.5t24 -78t51 -24.5q6 0 13 1l36 6q21 -1 23.5 -8t2.5 -9q0 -10 -15 -19q-6 -4 -24 -5.5 t-66 -17t-73 -26t-53 -29.5l-35 -25v182q-33 -32 -55.5 -51.5t-72.5 -56.5t-100.5 -60.5t-116.5 -26.5h-17q-61 0 -116 27t-78 72.5t-31.5 97.5t-8.5 119v401q0 49 -16 75.5t-38.5 36.5t-52 17.5t-37.5 9t-17.5 6t-9.5 15.5q0 20 29 20h257zM748 1283h215l115 -298 q3 -8 3 -15q0 -13 -7.5 -19t-13.5 -6q-15 0 -37 26z" unicode="ù"/>
<glyph glyph-name="uacute" d="M779 858v-541q0 -66 8.5 -114t47.5 -87t121 -44q11 -1 22 -1q69 0 138 34.5t124 90.5l20 20v410q0 65 -7 102t-32.5 59.5t-63.5 29t-47 15t-6 20.5t19 12h248v-571q0 -31 5 -84.5t24 -78t51 -24.5q6 0 13 1l36 6q21 -1 23.5 -8t2.5 -9q0 -10 -15 -19q-6 -4 -24 -5.5 t-66 -17t-72 -25.5t-54 -30l-35 -24v181q-33 -32 -55.5 -51.5t-72.5 -56.5t-100.5 -60.5t-116.5 -26.5h-17q-60 0 -116 27t-78.5 72t-31 98t-8.5 118v402q0 49 -16 74.5t-42.5 38.5t-50.5 18.5t-33.5 7t-19 6t-9.5 15.5q0 20 29 20h257zM1064 1292l221 1l-272 -327 q-12 -14 -27 -14q-4 0 -14 2.5t-10 14.5q0 4 2 10z" unicode="ú"/>
<glyph glyph-name="ucircumflex" unicode="û"/>
<glyph glyph-name="udieresis" d="M785 874v-541q0 -66 8.5 -114.5t47.5 -87.5t121 -44q11 -1 22 -1q69 0 140 35.5t122 89.5l20 21v409q0 65 -7 102t-32.5 59.5t-63.5 29t-47 15t-6 20.5t19 12h248v-571q0 -34 5 -85.5t24 -76.5t51 -25q6 0 13 1l36 6q21 -1 23.5 -8t2.5 -9q0 -9 -15 -18q-7 -4 -23.5 -6 t-64.5 -17t-70.5 -24t-57.5 -33l-35 -23v182q-33 -32 -56.5 -53t-71.5 -56.5t-100 -60t-117 -26.5h-13q-63 0 -119.5 27.5t-79 72.5t-31 98t-8.5 118v401q0 50 -16 76.5t-36 35t-52 18t-40.5 10.5t-17.5 4t-9 15q0 2 1 12t28 10h257zM1210 1236q29 -1 55 -14.5t40.5 -40 t15.5 -59.5q0 -30 -14 -53q-15 -26 -41.5 -41.5t-55.5 -15.5q-30 -1 -57 15t-41.5 41t-13.5 57q0 30 14.5 56.5t41 40.5t56.5 14zM830 1231q27 0 54 -14.5t42.5 -56t15.5 -56.5t-15 -41t-41 -41t-56 -15q-31 0 -57 15t-55 97q0 29 15 56t42 41.5t55 14.5z" unicode="ü"/>
<glyph glyph-name="yacute" unicode="ý"/>
<glyph glyph-name="thorn" unicode="þ"/>
<glyph glyph-name="Alpha" d="M757 471h454l-222 584zM1025 1322l406 -1017q41 -105 62 -147t55 -70.5t69 -37.5l49 -13q26 -8 26 -22q0 -2 -3 -12.5t-23 -10.5h-461q-21 0 -25 18.5t20 21.5l46 5q35 3 62.5 17t31.5 31t4 26q0 25 -14 61l-95 245h-501l-87 -218q-10 -25 -17 -59.5t-4 -48.5 q4 -29 19 -40t57 -17l49 -8q23 -4 20.5 -23.5t-20.5 -19.5h-390q-23 0 -23 12q0 2 3 12t20 16l29 9l35 10q33 11 62 39.5t46 61t44 97.5z" unicode="Α"/>
<glyph glyph-name="Beta" d="M1016 604h-137q-29 0 -37.5 -10t-8.5 -25v-461q0 -31 13.5 -46t54.5 -15h115q103 0 183 40t116 103t36 139q0 82 -35.5 133.5t-86 83t-110.5 45t-103 13.5zM966 1189h-81q-26 0 -39 -11t-13 -26v-440q0 -25 8 -32t33 -7l117 -1h6q51 0 104.5 17t97.5 45.5t73 75.5t30 131 q0 80 -33 132q-31 47 -87.5 74.5t-104 34.5t-111.5 7zM1177 635q65 -16 112.5 -31t101.5 -49.5t86.5 -90.5t32.5 -136v-14q-4 -112 -55.5 -179t-123 -101.5t-162 -44.5t-203.5 -10h-445q-34 0 -32.5 18t21.5 21l39 5q47 6 78 20t47.5 39t16.5 105l-1 860q-1 42 -8.5 72 t-28.5 53t-70 30l-81 11q-21 2 -21 21t21 19h467q73 0 141 -9.5t143.5 -37.5t133 -92t59 -121t1.5 -64q0 -99 -38 -158q-52 -82 -118 -99z" unicode="Β"/>
<glyph glyph-name="Gamma" d="M1510 1268l16 -336q0 -20 -14 -22t-24 16q-7 9 -11.5 34t-19 67.5t-35.5 79.5t-48.5 58.5t-74.5 32.5t-106 11l-343 -2v-952q0 -137 30 -173t67.5 -48t90.5 -17l76 -8q13 -2 14 -19.5t-25 -17.5h-573q-25 0 -25 15q0 19 22 22l63 8q47 6 73.5 30t36.5 73.5t10 134.5v775 q0 72 -20 116t-44 56t-70 19l-41 6q-28 4 -29 22.5t13 18.5h991z" unicode="Γ"/>
<glyph glyph-name="Delta" d="M540 91h860l-420 975zM405 -19l613 1340l625 -1340h-1238z" unicode="Δ"/>
<glyph glyph-name="Epsilon" d="M1460 1289l25 -295q1 -21 -15 -22t-26 22q-4 6 -14.5 44.5t-29 73.5t-44 58t-63 35.5t-73.5 12.5h-407v-511h290q39 0 84.5 9t75 29t46.5 48.5t20.5 70t9.5 54t22.5 13t16.5 -26.5v-437q0 -28 -14.5 -30t-23.5 19q-2 3 -4 22t-9 40.5t-17.5 40t-36.5 37t-63 27t-107 8.5 h-290v-442q0 -83 24 -104t72 -21l344 -1h8q42 0 78 9.5t68.5 26.5t56 40.5t49.5 64.5t37.5 78t25.5 50t24.5 8t10.5 -16q0 -6 -3 -15l-99 -324h-1013q-19 0 -17 17.5t17 19.5l52 6q49 5 79.5 24t38.5 58t8 130v847q0 57 -29 100.5t-89 55.5l-43 5l-33 5q-14 1 -14 22 q0 14 17 14h977z" unicode="Ε"/>
<glyph glyph-name="Zeta" d="M449 -13l855 1226h-420q-39 0 -86.5 -6.5t-89 -25.5t-61.5 -53.5t-32 -85t-16 -74t-9.5 -39.5t-21.5 -16.5t-14 15.5l33 351h950l-861 -1232h522q52 0 108 13.5t97 38t65 58t38 67.5t22 57.5t18 34t21.5 4.5t11.5 -18q0 -3 -1 -6l-69 -311z" unicode="Ζ"/>
<glyph glyph-name="Eta" d="M1380 662l-1 372q-1 29 -11 70.5t-32 70.5t-51.5 41t-63.5 17l-42 5q-28 3 -25.5 23t25.5 20h513q27 0 25 -20.5t-22 -22.5l-36 -5q-34 -5 -61.5 -16.5t-48 -36t-29 -62.5t-8.5 -84v-789q0 -34 6.5 -72.5t29.5 -70.5t50.5 -44t65.5 -20l36 -8q25 -6 25 -20q0 -21 -27 -21 h-507q-27 0 -29 18t29 23l55 8q22 3 55.5 22t52 47.5t21.5 61t4 73.5l1 359h-707l-1 -366v-7q0 -28 7.5 -67t29 -70t49.5 -43t66 -20l36 -8q27 -7 23.5 -25t-26.5 -18h-504q-27 0 -28.5 19t28.5 24l54 8q23 3 56 21t50.5 46t22 66.5t4.5 70.5v794q0 30 -10 70.5t-32.5 70 t-51 41.5t-64.5 17l-41 5q-24 3 -24 21q0 22 24 22h511q26 0 24 -20.5t-22 -22.5l-36 -5q-33 -5 -60.5 -16.5t-48 -36t-29 -61.5t-8.5 -76v-9l1 -364h707z" unicode="Η"/>
<glyph glyph-name="Theta" d="M1013 37h5q105 0 185.5 43.5t150 135t95 190.5t25.5 221v27q-4 138 -34 253t-99.5 198.5t-153.5 116.5t-169 33h-5q-90 -2 -170.5 -39t-143.5 -116.5t-97.5 -195.5t-37.5 -189.5t-3 -91.5q0 -108 26 -204q32 -123 97.5 -210.5t146 -129.5t182.5 -42zM402 616v8 q0 117 27 233t121.5 240t211.5 174.5t251 53.5h10q128 0 255 -49t215 -172.5t115.5 -240.5t27.5 -225v-22q-4 -137 -42.5 -241.5t-117.5 -201.5t-195.5 -153t-267.5 -56h-5q-165 0 -279 61t-188 160t-105.5 196.5t-33.5 234.5zM945 744h120q49 0 75.5 8.5t43 28t23.5 48.5 l14 62q7 15 15.5 16t9.5 1q13 0 13 -17v-398q0 -21 -16 -25.5t-28 17.5q-4 5 -7 40t-27 57t-48.5 30.5t-67.5 8.5h-120q-72 0 -95 -33t-29 -68t-9 -45t-13.5 -14.5t-13.5 -4.5q-12 0 -12 26v404q0 16 14 15.5t19 -9t8 -31t14 -48.5t35.5 -47.5t81.5 -21.5z" unicode="Θ"/>
<glyph glyph-name="Iota" d="M955 230v797q0 31 -9.5 70.5t-32.5 70t-51.5 42.5t-64.5 17l-41 5q-24 3 -24 21q0 22 24 22h511q26 0 24 -20.5t-22 -22.5l-36 -5q-33 -5 -60.5 -16.5t-48 -36t-29 -63t-8.5 -84.5v-794q0 -30 7.5 -73t28.5 -72.5t51 -43t65 -20.5l36 -8q24 -6 24 -21q0 -21 -27 -21h-504 q-27 0 -28.5 18.5t28.5 23.5l54 8q22 3 56 22t51 47t21.5 65.5t4.5 71.5z" unicode="Ι"/>
<glyph glyph-name="Kappa" d="M702 689h81q32 0 70.5 23.5t70 57.5t143 160.5t136 156t43 61t16 45t-12 26t-43.5 20.5l-57 12q-25 5 -24.5 20.5t27.5 15.5l460 -1q16 -1 20.5 -14t-19.5 -18l-49 -11q-49 -11 -77.5 -25t-62 -42t-57.5 -52.5t-144 -150.5l-158 -164l-77 -82l447 -522q36 -43 69.5 -76.5 t67.5 -56.5t66 -30l76 -17q24 -6 25 -22q0 -15 -22 -15h-492q-33 0 -28.5 15.5t25.5 18.5l45 6q42 5 57 28t7.5 45t-34.5 55l-60 71q-68 80 -138 157t-118 135t-86 88t-76 30h-117l-1 -399v-10q0 -63 13 -100t45 -59t67 -31l57 -16q26 -8 23.5 -24t-28.5 -16h-483 q-33 0 -33.5 15.5t30.5 24.5l57 16q34 9 63.5 36t39 70t9.5 94v802q0 45 -14.5 89t-46 66t-81.5 36l-41 11q-21 5 -21 21q0 20 24 20h508q15 0 19 -16t-22 -22l-57 -14q-39 -10 -72 -33.5t-44.5 -62.5t-11.5 -87v-8z" unicode="Κ"/>
<glyph glyph-name="Lambda" d="M1027 1325l445 -1089q36 -89 61 -121.5t49.5 -46.5t56.5 -23l49 -14q14 -5 14 -17q0 -17 -23 -17h-464q-24 0 -29 13.5t24 20.5l49 11q40 9 58.5 25t20 43t-7.5 55l-32 80l-304 779l-324 -786l-31 -73q-14 -37 -10 -60q5 -32 27 -49t70 -28l33 -8q20 -5 17 -20t-27 -15 h-385q-19 0 -19 19q0 11 13 16l27 8l49 14q43 15 68 44t45 69.5t41 91.5z" unicode="Λ"/>
<glyph glyph-name="Mu" d="M515 1276l499 -1042l509 1051l302 -1q26 -1 27.5 -16t-24.5 -21l-52 -12q-59 -14 -91 -53t-31 -115l1 -806q0 -75 12.5 -119.5t48 -74.5t77.5 -38l46 -9q21 -5 21 -21q0 -18 -21 -18h-502q-22 0 -22.5 17.5t16.5 21.5l58 11q56 10 84 40t35.5 70.5t7.5 119.5v832 l-542 -1099l-510 1067v-838q0 -81 25 -125.5t60.5 -59.5t66.5 -20l43 -8q18 -4 15.5 -21t-21.5 -17h-431q-27 0 -25 16.5t20 21.5l45 11q50 12 71.5 20.5t40.5 46.5t19 135l-1 811q-1 86 -36.5 131t-100.5 60l-46 10q-16 3 -16 20q0 21 19 21h303z" unicode="Μ"/>
<glyph glyph-name="Nu" d="M665 1281l789 -939v696q0 50 -16 97.5t-46.5 70t-70.5 31.5l-63 14q-25 5 -20.5 21.5t25.5 16.5h434q28 0 28 -19q0 -15 -25 -19l-46 -8q-44 -8 -75.5 -33.5t-42 -70t-10.5 -98.5v-1048l-899 1086v-835q0 -65 16 -111t51.5 -71t82.5 -34l41 -8q21 -5 18.5 -24t-31.5 -19 h-404q-27 0 -28.5 17t20.5 23l50 13q39 10 67 31t37 62.5t9 131.5v876q-23 26 -42 43.5t-53 32t-80 22.5l-68 11q-21 3 -21 20q0 21 21 21h352z" unicode="Ν"/>
<glyph glyph-name="Xi" d="M518 -20l-73 330q-1 5 -1 8q0 13 13 13.5t23 -10.5q10 -13 32.5 -59t52.5 -81t62.5 -52t95 -23t128.5 -6h333q32 0 95.5 7t119 29t90 99.5t45.5 94t23.5 12.5t12.5 -17q0 -4 -1 -9l-65 -338zM876 715h210q46 0 88 8.5t67 27.5t37.5 46t19.5 54.5t13.5 41.5t23 15.5 t16.5 -16.5v-432q0 -23 -15.5 -27t-28.5 19q-1 0 -13.5 48t-58.5 70t-149 22h-210q-76 0 -107 -28.5t-43 -59.5l-14 -44q-9 -26 -19 -27.5t-11 -1.5q-16 0 -16 27v426q0 20 14 21t24 -13q7 -12 10.5 -51.5t22 -67.5t50 -43t89.5 -15zM515 1278l986 2l22 -298 q1 -25 -16 -25.5t-28 17.5l-27 54q-20 35 -55 61t-67.5 38.5t-71 21t-76.5 8.5h-333q-39 0 -94 -12t-89.5 -30.5t-62 -51.5t-41.5 -65t-21 -43.5t-18 -11.5q-3 0 -12.5 2t-8.5 23z" unicode="Ξ"/>
<glyph glyph-name="Omicron" d="M572 618q3 -137 35 -250.5t139.5 -226t191.5 -113.5t86 -1q164 0 291 135q82 86 116 203t36.5 191t2.5 100q0 90 -11 164q-17 105 -59.5 198t-138 170t-235.5 77h-7q-134 -3 -228 -75.5t-142 -166.5t-62.5 -188.5t-14.5 -183.5v-33zM414 711q16 199 98.5 337t219 208.5 t287.5 73.5h9q163 0 291 -71.5t213.5 -208.5t93 -249.5t7.5 -146.5q0 -150 -45 -276q-50 -139 -138.5 -231t-198 -137.5t-232.5 -45.5h-11q-135 0 -235.5 48t-190 142t-131 217t-41.5 254q0 42 4 86z" unicode="Ο"/>
<glyph glyph-name="Pi" d="M407 1227l-63 11q-19 3 -23 22t20 19h1336q21 0 21 -22q0 -16 -19 -17l-41 -5q-51 -7 -84 -33t-45.5 -63.5t-12.5 -116.5v-737q0 -68 9 -128.5t41 -85.5t73 -35l44 -11q26 -7 26.5 -24.5t-24.5 -17.5h-491q-26 0 -25.5 18t23.5 24l49 11q49 11 80.5 45.5t42.5 88 t11 112.5l-1 740q-1 80 -14 114.5t-61 57t-116 22.5h-322q-35 0 -76.5 -11.5t-66 -37t-33.5 -59.5t-9 -89v-732q0 -77 5 -123.5t40 -83t74 -44.5l61 -13q24 -6 20.5 -23t-26.5 -17h-502q-17 0 -17 13q0 18 20 24l46 11q34 8 76 33.5t54 76.5t12 147v731q0 79 -10.5 114 t-40 61.5t-61.5 32.5z" unicode="Π"/>
<glyph glyph-name="Rho" d="M842 1183v-494q0 -25 59.5 -36.5t113.5 -11.5q13 0 26 1q85 3 155.5 33.5t108 101t37.5 168.5q-1 86 -36.5 150.5t-111.5 92t-175 27.5h-27q-46 -2 -98 -8t-52 -24zM842 607v-358q0 -71 15.5 -111.5t46.5 -68t83 -36.5l54 -10q20 -4 18.5 -22t-21.5 -18h-491 q-34 0 -33.5 18.5t25.5 23.5l32 6q36 6 66 20t48 57.5t18 140.5v787q0 56 -12.5 93.5t-41 62t-67.5 35.5l-62 16q-27 7 -27 24q0 20 21 20h552q75 0 130 -5t131.5 -38.5t124.5 -106.5t49.5 -129.5t1.5 -61.5q0 -102 -48.5 -196.5t-142 -133.5t-223.5 -39h-20q-120 1 -172 16 z" unicode="Ρ"/>
<glyph glyph-name="Sigma" d="M450 -26l458 607l-418 691l955 1l17 -298q1 -24 -15.5 -27.5t-30.5 16.5q-7 9 -17 39t-34.5 70.5t-64.5 72t-88 39.5t-99 8h-391l337 -563l-413 -556h571q54 0 86.5 5t68.5 18t66.5 36.5t59.5 68.5l46 74q21 30 33.5 24t12.5 -18q0 -5 -2 -12l-107 -295z" unicode="Σ"/>
<glyph glyph-name="Tau" d="M1546 1283l33 -292q1 -13 -14.5 -21.5t-23.5 19.5l-20 67q-12 37 -34.5 69t-71 50.5t-139.5 18.5h-188v-938q0 -67 15 -113t50.5 -72t94.5 -39l47 -11q25 -6 24.5 -22.5t-21.5 -16.5h-538q-36 0 -30.5 17.5t25.5 21.5l44 8q52 9 87 37.5t48.5 73t13.5 116.5v938h-223 q-62 0 -110.5 -21.5t-72.5 -59.5t-33 -73l-16 -62q-5 -19 -22.5 -16.5t-16.5 27.5l20 294h1072z" unicode="Τ"/>
<glyph glyph-name="Upsilon" d="M455 1305q26 2 58 4t59 2h22q72 -3 141.5 -27.5t126.5 -77.5t91 -137t42 -140l24 -148q9 84 20.5 148.5t48 150.5t104.5 144.5t133 75t115 16.5h11q89 -5 138.5 -49t51 -77t1.5 -37q0 -55 -31 -86t-57 -31l-27 -1q-51 0 -83 36l-43 62q-23 27 -45 33.5t-33 6.5 q-25 0 -55 -15q-36 -19 -70 -68t-61.5 -124t-36.5 -138t-9 -129v-464q0 -56 17 -108.5t50.5 -71t90.5 -24.5l52 -6q22 -3 21.5 -23t-26.5 -20h-544q-40 0 -30.5 20.5t27.5 22.5l66 6q62 5 86.5 22t36 67.5t11.5 114.5v464q0 50 -14.5 140.5t-50.5 178.5t-101 139 t-118.5 61.5t-94.5 10.5l-50 -3l-45 -5z" unicode="Υ"/>
<glyph glyph-name="Phi" d="M1067 1071l1 -825q41 0 121 4t194.5 54.5t163.5 143t49 188.5q0 37 -14 128.5t-68.5 159.5t-164 105.5t-240.5 40.5zM926 246v824q-45 -2 -110 -6.5t-159 -39.5t-144.5 -94t-64 -148.5t-13.5 -140.5q0 -57 15.5 -127.5t68.5 -129.5t142 -93t196 -40zM1068 1119 q36 0 135.5 -1t241 -44t210 -121t84 -166t15.5 -129q0 -87 -34 -166q-49 -113 -145 -175t-217 -88.5t-222 -29.5l-68 -3q2 -24 6.5 -44t20 -46t37.5 -43.5t61.5 -28t55 -17t14.5 -21t-23 -14.5h-484q-21 0 -21.5 14t19.5 23q5 2 44.5 9.5t76.5 39t45 90.5l6 38 q-52 1 -118.5 5t-175 30t-193.5 89.5t-120.5 158t-35.5 177.5q0 41 14 126.5t74 164t189.5 120t261.5 47.5l104 5q-9 27 -20.5 46t-37 33.5t-52 24t-50 14.5t-32 12.5t-7.5 20.5t16 13h491q24 0 24.5 -15t-18.5 -23q-7 -3 -25 -6.5t-49.5 -14t-54.5 -25t-30 -41.5z" unicode="Φ"/>
<glyph glyph-name="Chi" d="M946 620l-269 423q-42 64 -63.5 92t-41 44t-48.5 29t-56 20l-50 11q-33 7 -30.5 26t22.5 19h506q21 0 24.5 -20t-21.5 -25l-55 -11q-22 -5 -42.5 -20.5t-22.5 -38.5t10 -45.5t39 -63.5l202 -312l244 318q28 36 41.5 60.5t12.5 49.5q-2 26 -17.5 39t-47.5 18l-46 6 q-31 4 -28 26t20 22h427q27 0 29.5 -22.5t-24.5 -25.5l-46 -6q-28 -4 -66.5 -18t-72 -44.5t-65.5 -72.5l-318 -414l302 -463q33 -52 61 -86.5t69.5 -60.5t81.5 -34l62 -14q25 -6 25 -26q0 -22 -27 -22h-533q-24 0 -26.5 23t23.5 27l38 6q55 8 75.5 19.5t22 26t1.5 17.5 q0 25 -23 60t-27 42l-225 354l-268 -358q-14 -19 -35 -49.5t-21.5 -48t12.5 -40t45 -26.5l57 -8q29 -5 24.5 -26t-33.5 -21h-413q-30 0 -30 19q0 24 20 28l54 8q32 4 70 22t77.5 58t94.5 112z" unicode="Χ"/>
<glyph glyph-name="Psi" d="M325 1211v59q19 13 39 24t48.5 18t56.5 7q9 0 32 -1.5t69 -41.5t58 -163l4 -224q3 -110 36 -189t113.5 -137t127.5 -65l41 -8v529q0 55 -9 93t-36 72.5t-75 49.5l-74 20q-14 6 -17.5 22t17.5 16h500q27 0 24.5 -16t-11 -21t-61 -13.5t-79 -44.5t-33.5 -81t-7 -97v-529 q35 7 65 17t83 48t95.5 92t57.5 114.5t16 167.5q0 101 -0.5 137.5t-0.5 42.5q0 59 9 96q12 53 46.5 87t103.5 38h7q26 0 62.5 -7t53.5 -20l24 -18l1 -53q-42 14 -69 14q-5 0 -21.5 -2t-34 -20.5t-23 -54.5t-5.5 -116v-25.5v-22.5q0 -90 -8.5 -177.5t-70 -184.5t-156 -155.5 t-180.5 -69.5l-55 -8v-174q0 -63 10.5 -103.5t54 -67.5t76.5 -33t48.5 -12.5t15 -21.5t-18.5 -15h-508q-29 0 -21 18.5t27 21.5l43 5q44 7 78 37t45 70.5t11 100.5v174q-44 4 -113 15.5t-150 72t-132.5 142.5t-65 158t-14 168.5t-1.5 146t-21.5 85.5t-54.5 36t-49 -7z" unicode="Ψ"/>
<glyph glyph-name="alpha" d="M1184 493q-8 34 -17 69t-38.5 104t-80 113.5t-124.5 50.5q-8 1 -16 1q-68 0 -133.5 -41.5t-105 -118.5t-50.5 -160.5t-11 -129.5q0 -72 20 -166.5t79 -141t118 -46.5q29 0 60 9q64 18 119 86t91 145.5t55 131.5zM1218 590q36 86 41 98l68 177h121l-182 -456 q2 -26 4.5 -45t22.5 -86.5t39 -106.5t52.5 -65t65.5 -29q17 -2 30.5 1t33.5 13.5t32 9t14.5 -6t2.5 -5.5q0 -8 -18 -25q-3 -2 -86.5 -49t-102.5 -47h-1q-25 0 -42 14t-29 70l-25 101l-18 80l-17 73q-53 -100 -98.5 -174.5t-114.5 -120.5t-168 -46h-4q-78 0 -150 36 t-131.5 129.5t-63.5 166.5t-4 99q0 83 16 145q17 66 61.5 141.5t96 117.5t112.5 69t140 27q75 -1 128.5 -31t92 -83t51.5 -96z" unicode="α"/>
<glyph glyph-name="beta" d="M760 180q33 -52 59.5 -79t70.5 -46.5t80 -19.5q34 0 74 12q78 23 135.5 99t71 153t13.5 123q0 55 -12 108q-18 74 -56 137t-73 97l-32 31q-32 -12 -56.5 -20.5t-52.5 -14t-65.5 -7t-60 15.5t-22.5 39q0 20 33 55t97 35q2 0 35.5 -0.5t60.5 -7.5l35 -9q21 43 41 91.5 t20 116.5q-1 61 -29.5 101t-65.5 48t-54 8q-43 0 -88 -23q-68 -35 -103 -98.5t-45.5 -131.5t-10.5 -116v-697zM1167 852q33 -18 54 -31t67 -54t81.5 -115t38 -133t2.5 -72q0 -93 -30 -179q-37 -103 -105 -174t-138 -98.5t-132 -27.5h-13q-77 3 -126 33.5t-70 58.5l-36 44 v-412l-122 1v1197q0 59 18.5 144.5t80 160.5t145.5 101.5t149 26.5q29 0 57 -4q83 -14 148 -69.5t66 -96.5t1 -46q0 -73 -32 -132t-71 -93z" unicode="β"/>
<glyph glyph-name="gamma" d="M1013 175q12 24 24 46t48.5 82.5t75.5 123.5t59 102t21 52.5t1 16.5q0 24 -11 64q-10 34 -15.5 60t-6.5 69q0 42 33 73.5t78 31.5q2 0 27.5 -1t58.5 -34t33 -93v-11q-3 -48 -28.5 -96t-47 -83t-156.5 -244l-172 -265q7 -58 13 -110t6 -102v-16q-2 -62 -14 -106.5 t-32 -64.5t-36 -20l-16 -1q-30 0 -52 39t-22 82v8q1 51 14 87l25 77q-6 77 -13 121t-31.5 135t-63.5 191.5t-77.5 174t-60 104.5t-44 49.5t-42.5 23t-34 -2.5l-28 -15q-19 -2 -21.5 5t-2.5 10q0 11 13 27q15 18 55 54t64.5 52.5t41.5 16.5q18 -1 39 -18.5t45 -53.5 t61.5 -109t88.5 -216t59 -168z" unicode="γ"/>
<glyph glyph-name="delta" d="M985 880q-52 -13 -107 -33.5t-123.5 -97t-79.5 -163t-11 -130.5q0 -69 15 -130q20 -84 62.5 -153t96.5 -102.5t122 -34.5h7q67 0 132.5 36.5t120.5 119.5t55.5 147.5t0.5 69.5q0 116 -21 181q-27 79 -79.5 136t-116.5 102zM801 989q-105 64 -132 88t-51 60t-24 77 q0 4 1.5 29t35 63t124.5 38q27 0 60 -3q84 -9 172 -35l145 -49q71 -24 104.5 -56t24 -54.5t-43.5 -23.5h-1q-19 0 -61 24.5t-111 53.5t-148.5 51t-111.5 23t-37 1q-50 0 -63 -14.5t-13.5 -32t33.5 -43.5q42 -34 160.5 -102t218.5 -129.5t171.5 -132t108 -159.5t36.5 -179 q0 -45 -7 -95q-16 -106 -72.5 -203.5t-153 -153.5t-204.5 -56q-13 0 -26 1q-144 8 -230 84.5t-124.5 175.5t-38.5 214v6q1 116 42 205.5t113 152t140 83.5t68 25q0 2 -105 66z" unicode="δ"/>
<glyph glyph-name="epsilon" d="M1311 872v-131q-31 10 -72.5 23t-85 23t-96.5 13q-14 1 -27 1q-48 0 -105 -9.5t-91.5 -41.5t-41 -60t-6.5 -42q0 -23 9 -44q13 -36 49 -66l28 -25q53 23 88 33t72.5 11.5t44.5 1.5q55 0 76 -21.5t22 -39t-17 -37t-46.5 -20t-38.5 -0.5q-37 0 -80 3t-59 9l-60 19 q-36 -30 -73 -70t-39.5 -82.5t-2.5 -49.5q0 -72 47 -133q40 -54 98.5 -77t118.5 -23q14 0 29 1q95 6 148.5 43.5t74.5 68t36 61.5l22 49q3 8 13 27.5t20 22t14.5 -8.5t4.5 -20t-3 -19l-14 -49q-7 -23 -24 -59t-52 -82.5t-116 -78t-165 -33.5h-16q-77 0 -164.5 27.5 t-136.5 95.5t-49 148v6q2 87 48 141.5t77 74.5l58 39q-66 41 -109.5 85.5t-43.5 107.5q0 50 37 98.5t119 81.5t208 33h8q88 -1 193 -16z" unicode="ε"/>
<glyph glyph-name="zeta" d="M972 1115q-27 12 -79 37.5t-100 59.5t-65.5 56t-18.5 39.5t26 47.5t62 55l49 32q14 9 21 9q2 0 6 -2.5t4 -16.5q-1 -6 -40.5 -37.5t-40 -58t20.5 -52.5q17 -23 61 -51t91 -47l52 -22q40 30 87.5 65t101.5 57.5t94.5 26t52.5 3.5q45 0 62.5 -17.5t17.5 -42.5q0 -6 -3 -26 t-35.5 -49.5t-81.5 -52t-101 -31.5t-84 -9q-15 0 -29 2l-59 5q-21 -27 -55.5 -73t-88.5 -150t-82.5 -207t-30 -166t-1.5 -72q0 -103 25 -178q22 -69 55 -97.5t67 -37t93 -8.5q19 0 74.5 2t114.5 7q26 2 48 2q40 0 72.5 -7.5t53.5 -35t22 -57t1 -32.5q0 -52 -22 -109 q-28 -72 -78 -124.5t-103 -77t-101 -24.5h-7q-47 1 -71.5 21t-30.5 47t13.5 51t50 24.5t46.5 -12.5l27 -33q12 -13 27 -16q18 -5 50 9t59 41t48 70.5t21 83.5v11q-3 32 -17.5 45t-55.5 16h-19q-36 0 -115 -2l-105 -2h-26q-72 0 -131.5 10.5t-117 71t-72 156t-14.5 166.5 q0 43 4 85q12 119 53.5 226t89 178.5t136.5 189.5z" unicode="ζ"/>
<glyph glyph-name="eta" d="M789 916l1 -226q23 27 51 59t79.5 70.5t104.5 56.5t102 18h15q94 -6 148 -61t66.5 -142.5t12.5 -191.5l-1 -818l-116 -1l-1 832q-1 162 -50 213t-125 55h-7q-64 0 -127 -37t-103 -78l-49 -49v-632l-122 1l-1 612q-1 8 -4.5 61t-16.5 74.5t-46 23.5q-8 0 -36 -6l-14 -3 q-17 -5 -28 -2.5t-11 17.5q0 11 17 18l22 8q25 9 59.5 23t78 37.5t61.5 37.5z" unicode="η"/>
<glyph glyph-name="theta" d="M1326 763q-7 63 -15.5 124.5t-34.5 154t-90.5 156.5t-159.5 64q-99 -1 -161.5 -66.5t-84 -159t-30.5 -178.5l-11 -95h587zM739 686q-1 -15 -1 -52q0 -18 0.5 -66t13 -167t53 -210t96 -127t118.5 -36h7q82 1 140 50.5t95 144t51 190.5t14 210v63h-587zM1026 1339h11 q120 0 213 -66.5t139.5 -200t52.5 -247.5t6 -177t-4 -112q-11 -123 -46.5 -241.5t-120 -221t-165 -105t-88.5 -2.5q-142 0 -238 84q-100 87 -132.5 238.5t-35 225t-2.5 109.5q0 80 6 164q10 131 47 265t135.5 208.5t221.5 78.5z" unicode="θ"/>
<glyph glyph-name="iota" d="M1076 886v-713q0 -40 9.5 -68t29 -40t54.5 -12q26 -1 53 6.5t39.5 5.5t15.5 -9t3 -10q0 -9 -16 -15l-138 -55q-81 -33 -107 -33q-5 0 -16 4t-25.5 24.5t-19.5 73t-5 88.5v13l1 411q0 45 -6.5 96.5t-20 64t-30.5 14.5q-16 1 -33 -8t-32 -8.5t-15 19.5q0 13 16 19l30 11 q28 10 78 34.5t65 36.5z" unicode="ι"/>
<glyph glyph-name="kappa" d="M820 904l-1 -428q34 40 92.5 106.5t136 142t136 120t91 47t40.5 2.5q47 0 76 -26.5t29 -67.5q0 -43 -22.5 -64.5t-75.5 -27.5l-107 -11q-68 -11 -111 -36t-129 -106l-41 -39l282 -345q96 -119 150 -119q4 0 8 1l68 16q15 -2 18.5 -9.5t3.5 -9.5q0 -9 -17 -17l-139 -64 q-54 -25 -67 -25q-1 0 -6.5 1.5t-32.5 34.5l-382 455v-463h-123v662q0 59 -26 84t-57 25q-8 0 -34.5 -4.5t-35.5 -2t-9 15.5q0 9 14 16l19 8l66 24q36 14 101 53z" unicode="κ"/>
<glyph glyph-name="lambda" d="M534 -16q155 323 179 374l264 560q-14 32 -26 57.5t-39 65t-58 60t-73 27.5l-84 6q-54 5 -77.5 28.5t-23.5 60.5v6q1 36 24.5 59.5t83.5 24.5q51 0 96 -20t86.5 -64t76 -103t70.5 -155.5t105 -314.5t92.5 -292t41.5 -125t40 -91.5t42.5 -55.5t50.5 -15q21 -1 46.5 9.5 t33.5 12t13 -3t5 -11.5q0 -3 -1 -5q-3 -11 -45 -41t-77.5 -49t-53 -24t-25.5 -5h-4q-22 2 -38 37.5t-25 68.5l-205 685l-352 -766z" unicode="λ"/>
<glyph glyph-name="mu" d="M660 894h123l-1 -519v-22q0 -69 6 -108.5t39.5 -88.5t115.5 -57q10 -1 19 -1q48 0 100 28t91 63l71 63l-1 644h131l2 -631l2 -73q1 -43 13.5 -63t44.5 -24q12 -2 31 1.5t33.5 8t25 1.5t10.5 -15q0 -11 -27 -27q-20 -12 -57.5 -28t-74.5 -34.5t-59.5 -21.5t-37.5 7 q-21 11 -26.5 40.5t-6.5 75.5l-3 76q-66 -67 -112.5 -106t-107 -69t-113.5 -30q-4 0 -34 1.5t-68 27t-44 39.5l-43 72v-41q0 -20 0.5 -47t8.5 -80l16 -96q6 -42 6 -69v-13q-4 -44 -25.5 -68.5t-37 -25.5t-17.5 -1q-27 0 -50.5 21.5t-28 49.5t-4.5 48q0 23 4 50l32 145 q15 69 30.5 224.5t18.5 188.5t4 71z" unicode="μ"/>
<glyph glyph-name="nu" d="M1060 173l142 259q25 45 37.5 87.5t12.5 77.5q0 8 -1 15q-1 6 -11.5 57t-11.5 110q0 57 29 82.5t70 25.5h3q39 -2 63.5 -26.5t27 -56.5t2.5 -43q0 -40 -13 -79.5t-44 -96.5l-353 -635h-16l-191 578q-31 91 -46.5 132.5t-41 64.5t-53.5 16l-50 -17q-24 4 -24 21 q0 14 22 32q11 8 39.5 26.5t68 46.5t58.5 29.5t43 -16.5q24 -20 48 -78t33 -87z" unicode="ν"/>
<glyph glyph-name="xi" d="M904 748q-40 22 -69.5 42t-54.5 54t-27.5 61.5t-2.5 33.5q0 43 24 91q35 73 93 115l57 43q-69 29 -102.5 45.5t-66 37.5t-33.5 36t27 42q44 42 56 56t22.5 20.5t16.5 6.5q3 0 7.5 -3.5t1.5 -18.5q-2 -5 -27.5 -30t-21.5 -44q2 -14 17 -27t49 -32t79 -34l46 -16 q63 28 108.5 45t105.5 29t93.5 13t37.5 1q56 0 74.5 -20t19.5 -37q0 -15 -13 -31q-15 -18 -48 -32t-80 -20t-107 -6h-21q-43 0 -99 3l-68 3q-36 -25 -71.5 -54t-63 -79t-27.5 -91q0 -8 3 -36t46 -62l74 -66q41 25 76.5 45.5t72.5 34.5t81 25.5t71 11.5q22 0 53 -8.5 t36 -37.5t-18 -57q-18 -21 -52 -38t-69 -26t-81 -10q-11 -1 -23 -1q-31 0 -73 4l-58 4q-37 -32 -87 -79.5t-82.5 -126t-37.5 -137.5t-5 -75q0 -77 36 -132t96.5 -71t142.5 -16h20l142 2h25q52 0 89.5 -7.5t66 -40t29 -56.5t0.5 -27q0 -42 -14 -85q-29 -85 -100 -156 t-125.5 -72.5t-63.5 -1.5q-82 0 -107.5 21t-27 48t18 48.5t61.5 26.5q25 2 44.5 -2.5t63.5 -24.5t68 -20h5q28 2 53.5 24.5t39 65t13.5 76.5v10q-3 43 -20.5 58.5t-56.5 19.5q-8 1 -23 1q-36 0 -105 -3.5t-112 -3.5q-26 0 -44 1q-76 3 -147.5 26t-125.5 80t-55 111.5 t-1 62.5q0 92 18 152q21 72 75.5 152t102.5 117z" unicode="ξ"/>
<glyph glyph-name="omicron" d="M735 400q4 -114 44.5 -207.5t100.5 -132t125 -40.5h10q52 0 121.5 30.5t114.5 122.5t46.5 159t1.5 81q0 105 -22 204t-99 160.5t-162 61.5h-11q-80 -5 -151.5 -65.5t-95.5 -167.5t-24 -183q0 -12 1 -23zM599 416v11q0 129 47 238t149 168.5t210 63.5h11 q114 0 217.5 -58.5t153 -167.5t49.5 -244v-11q-3 -116 -47.5 -223.5t-148.5 -166.5t-217 -59h-18q-118 3 -218.5 66t-143 168.5t-44.5 214.5z" unicode="ο"/>
<glyph glyph-name="pi" d="M1551 898v-111l-220 -1q-15 -56 -21.5 -91.5t-12 -108t-5.5 -138.5v-41q1 -65 7 -128t14.5 -106.5t22 -53t27.5 -9.5q13 -1 42 10t40 17t20 4.5t14 -10t-26 -27.5q-14 -9 -33.5 -18t-58.5 -29t-59 -31t-39 -18t-28 0q-6 3 -14.5 23.5t-14 66.5t-7.5 84t-2.5 94.5 t-0.5 69.5q0 78 3 116q5 81 22 157.5t33 120.5l16 47h-393q0 -28 -0.5 -74t-4.5 -147t-17.5 -200.5t-35.5 -175t-47 -123t-54.5 -63.5t-48.5 -16t-47 15.5t-30.5 38.5t-2.5 26q0 40 45 91l63 68q28 36 51 93.5t39 128.5t24.5 154t8.5 137v47q-21 0 -55.5 -1t-89 -16.5 t-102 -39t-69 -30t-25 -3t-3.5 5.5q0 8 19 32q11 14 37.5 34t62.5 43.5t88.5 45.5t101.5 31t103 9h663z" unicode="π"/>
<glyph glyph-name="rho" d="M784 175q36 -42 64 -67.5t65.5 -43.5t78.5 -18q12 0 24 1q68 6 123 55t91.5 135.5t39 142.5t2.5 72q0 77 -16 144q-28 114 -95 177t-158 63h-14q-81 -5 -124.5 -48t-62 -98.5t-18.5 -142.5v-372zM784 93v-389h-121l1 799q0 94 7.5 147t42.5 110.5t98.5 100t170.5 46.5h11 q95 0 196 -49t156 -158.5t55 -240.5v-19q-5 -146 -61 -247t-137 -152t-154 -61q-27 -4 -51 -4q-44 0 -83 17t-82 57z" unicode="ρ"/>
<glyph glyph-name="sigma" d="M1131 745h-61q-44 0 -94 -1t-110.5 -18.5t-103.5 -55.5t-63 -102.5t-20 -133.5q0 -16 1 -32q7 -147 72 -246t139 -121.5t109 -22.5q71 0 151 57.5t102.5 163t22.5 180.5q0 13 -1 25q-5 91 -34.5 160.5t-74.5 112.5zM1229 746q29 -27 61 -60t68.5 -103.5t36.5 -177.5 q-1 -128 -63.5 -235t-155 -159.5t-197.5 -52.5h-15q-122 3 -202.5 59.5t-128 134t-61.5 148t-14 124.5q0 39 5 79q14 102 64 178.5t131.5 117.5t168 50.5t286.5 11.5t201 2h120v-112q-133 -2 -161 -2z" unicode="σ"/>
<glyph glyph-name="tau" d="M1445 853v-117l-380 -1q-14 -30 -25 -60t-15 -79t-4 -125v-276q0 -72 22.5 -94.5t62.5 -23.5q21 -2 52.5 5.5t55 19.5t34.5 10.5t17 -10.5t-14 -28q-8 -8 -19 -12.5t-56 -27.5t-79 -37t-71.5 -29.5t-56.5 -15.5q-1 0 -10.5 0.5t-32 18.5t-22.5 90v406q0 39 6.5 78 t23 75.5t38.5 65.5l36 49q-32 -1 -63 -1q-15 0 -24 0.5t-13 0.5q-41 0 -74.5 -6t-73.5 -22t-67 -31t-53.5 -33.5t-42 -23t-19.5 0t-4 9.5q0 6 3 16q5 17 27.5 37t68 57.5t92.5 65t98 38t107 10.5h475z" unicode="τ"/>
<glyph glyph-name="upsilon" d="M851 782v-427q0 -69 7.5 -121t42.5 -88t117 -36h5q77 0 138.5 39.5t99.5 120t41.5 127.5t3.5 66q0 51 -11 92q-20 67 -53 105t-71 71t-49 57t-7 56q4 35 27.5 59.5t67.5 24.5q33 -1 73.5 -27.5t68 -93t37.5 -116t10 -123.5v-15q-2 -88 -15.5 -154t-42 -138t-89 -139 t-131.5 -97.5t-141 -30.5h-6q-40 0 -85.5 13t-84 49.5t-58 80t-19.5 110.5v349q0 156 -28.5 175.5t-36.5 20t-10 0.5l-72 -21q-19 -4 -23 1.5t-4 9.5q0 6 5 16q3 6 29.5 25t83 56t83 56.5t42.5 19.5q3 0 5 -1q11 -4 24.5 -20.5t19.5 -76t6 -75.5z" unicode="υ"/>
<glyph glyph-name="phi" d="M1076 69q54 5 99.5 17.5t104.5 69t79.5 143.5t20.5 145q0 48 -10 95q-20 88 -81 159t-134 78l-79 11v-718zM954 40l2 769q-23 0 -56.5 -1.5t-99 -30.5t-118.5 -90.5t-65.5 -132t-12.5 -109.5q0 -64 24.5 -149.5t97.5 -166.5t156 -83zM956 880v52q0 36 -4.5 95.5 t-11.5 114.5t-7 91q0 3 0.5 23t20 43t53.5 23q5 0 27.5 -2t40 -29t17.5 -74v-15l-14 -139q-2 -28 -2 -142v-57q34 -2 90 -7t164 -60.5t143.5 -156t35.5 -175.5q0 -49 -20 -135t-68 -155.5t-124 -113.5t-156 -49l-65 -6v-315h-122l2 270q-45 0 -116 7t-176.5 80.5t-145 173.5 t-39.5 197q0 27 7.5 105t71 163.5t165 135.5t184.5 54z" unicode="φ"/>
<glyph glyph-name="chi" d="M1460 855l-382 -412q66 -122 101.5 -178.5t68.5 -97t72.5 -64.5t95.5 -31q36 -5 63 5t36 5t10 -16q0 -10 -11 -21q-12 -12 -28.5 -21.5t-72 -39t-82.5 -29.5h-2q-39 0 -70.5 28.5t-57 66t-40.5 64.5l-149 256l-360 -387h-122l433 468q-50 91 -84.5 142t-76 79t-104.5 36 l-79 5q-52 5 -74.5 28t-22.5 57q0 41 32.5 63.5t74.5 22.5q23 0 75.5 -10t110 -56.5t83 -82.5t95.5 -150l36 -60l309 331z" unicode="χ"/>
<glyph glyph-name="psi" d="M957 72v791q0 159 -8 230l-13 113q-1 10 -1 19q0 43 18 67t37.5 25.5t22.5 1.5q32 0 56.5 -24t25 -46t0.5 -30q0 -26 -2 -50q-9 -80 -11.5 -120t-2.5 -93v-841q29 1 61.5 4.5t91 32t107.5 100t64 142.5t15 131v8q-2 61 -14.5 111.5t-33.5 109t-37 81.5t-16.5 36.5t9 19.5 t32.5 -11q17 -14 48 -67t54 -103t39 -127.5t16 -131.5q0 -51 -10 -103q-24 -120 -91.5 -204t-138.5 -119t-138 -37l-58 -3v-316h-122v281q-36 0 -77.5 3t-144 42.5t-161 137.5t-75.5 178t-17 166v10q1 88 16.5 164t41.5 128.5t68 79t76 26.5q5 0 26 -2t48 -30t27 -55 q0 -20 -11 -44q-12 -26 -27 -35t-60.5 -30t-68 -47.5t-43.5 -74t-21 -164.5q0 -115 106 -224q53 -55 120.5 -81t116.5 -26h7h53z" unicode="ψ"/>
<glyph glyph-name="emdash" d="M4 656h2044v-72h-2044v72z" unicode="—"/>
<glyph glyph-name="quoteleft" d="M1635 1506l-41 -33q-53 -43 -85.5 -94t-32.5 -103q0 -54 11 -59t29 -1l36 8q6 1 12 1q41 0 69 -33t29 -71q0 -36 -31 -64.5t-58.5 -30.5t-32.5 -2q-46 0 -88.5 39.5t-53 89t-10.5 81.5q0 37 9 73q14 57 45.5 99t74.5 76t65 47t40 13h10q10 -1 11.5 -14.5t-8.5 -21.5z" unicode="‘"/>
<glyph glyph-name="quotedblleft" d="M1592 1239q5 76 40.5 138t89.5 104l63 45q14 11 24.5 12t11.5 1q15 0 18 -15.5t-3 -24.5t-39 -30t-64.5 -63.5t-44.5 -76.5t-13 -59q0 -14 6 -40t21 -29q7 -2 28 6t37 10t19 2q27 0 54 -31.5t28 -69.5q0 -36 -31.5 -67t-57.5 -32t-28 -1q-49 0 -96 47q-34 32 -48.5 76.5 t-14.5 83.5v14zM1233 1237q4 76 39 137.5t91 104.5l63 45q13 10 24 11t13 1q16 0 17.5 -15t-4.5 -24q-7 -10 -40.5 -34t-63 -63t-43 -73t-13.5 -60q0 -14 6 -40t21 -29q7 -2 29 6.5t37.5 10.5t18.5 2q25 0 52.5 -32.5t28.5 -69.5q0 -35 -32 -66.5t-58 -32.5t-28 -1 q-48 0 -95 47q-34 32 -48.5 77.5t-14.5 86.5v11z" unicode="“"/>
<glyph glyph-name="quotedblright" d="M659 1534q53 -1 110 -49.5t58.5 -98.5t1.5 -55q0 -89 -49 -165q-41 -63 -81.5 -91.5t-64.5 -43t-38.5 -10.5t-18 17.5t16.5 30.5q4 3 26.5 17.5t51 46t44.5 65t21 70t-2.5 56.5t-18.5 25q-8 2 -33 -7t-43 -7q-23 2 -51.5 22t-32 46t-3.5 32q0 37 33.5 68t72.5 31z M303 1529q51 -1 109.5 -50t60 -97.5t1.5 -52.5q0 -88 -51 -168q-43 -66 -81 -92.5t-61 -40t-37 -13.5q-3 0 -11.5 2t-12 15.5t17.5 31.5q4 3 26.5 18.5t50.5 46t43.5 62t21 70t-1.5 58t-19 24.5q-8 2 -33 -7.5t-43 -6.5q-22 2 -50.5 23t-31.5 46.5t-3 30.5q0 37 32.5 68.5 t72.5 31.5z" unicode="”"/>
<glyph glyph-name="ellipsis" d="M1691 742q46 -1 79.5 -33.5t33.5 -86.5q-1 -54 -32 -85t-57 -32t-28 -1q-47 0 -80 30.5t-34 89.5q0 56 35.5 87t82.5 31zM1020 736q47 -1 80 -33.5t33 -87.5q-1 -54 -31.5 -84.5t-56.5 -31.5t-28 -1q-47 0 -80 30.5t-34 88.5q0 55 35 87t82 32zM376 736q47 -1 80 -33.5 t33 -87.5q-1 -54 -31.5 -85t-56 -31.5t-26.5 -0.5q-49 0 -82 30.5t-33 87t34.5 88.5t81.5 32z" unicode="…"/>
<glyph glyph-name="perthousand" d="M300 938q2 -72 12.5 -135.5t35 -100t43 -37.5t20.5 -1q34 0 63 36q24 30 31 113.5t7.5 109.5t0.5 30q0 46 -5 126q-7 88 -36 129.5t-46 41.5l-18 1q-34 0 -64 -39q-31 -39 -38 -107.5t-7 -124.5q0 -21 1 -42zM193 938v18q0 74 15.5 157.5t73 133.5t90.5 51h35 q65 0 115 -39q55 -44 78.5 -122t23.5 -199q-1 -99 -24.5 -179.5t-79.5 -112t-103 -31.5h-9q-60 2 -111 40.5t-76.5 110.5t-27.5 172zM1514 283q2 -78 12.5 -138.5t35.5 -97.5t43.5 -38t19.5 -1q34 0 63 37q23 29 30.5 118t8 109.5t0.5 24.5q0 40 -6 127q-7 88 -35.5 129.5 t-45.5 42.5h-18q-34 0 -64 -39q-32 -40 -38.5 -104.5t-6.5 -122.5q0 -23 1 -47zM1406 283v24q0 71 16 153.5t73.5 131.5t90.5 50h34q64 0 115 -38q56 -44 79 -120t23 -201q-1 -102 -24 -181t-79.5 -110t-102.5 -31h-9q-60 2 -110.5 40t-76.5 109.5t-29 172.5zM980 283 q2 -79 12.5 -138.5t35.5 -96.5t44 -38.5t21 -1.5q33 0 62 37q23 30 30 115.5t7.5 110t0.5 28.5q0 44 -5 125q-6 87 -35.5 129.5t-64.5 42.5q-33 -1 -63.5 -39.5t-38 -105.5t-7.5 -126q0 -21 1 -42zM872 283v24q0 71 16 153.5t73.5 131.5t90.5 50h34q64 0 115 -38 q56 -44 79.5 -121.5t23.5 -199.5q-1 -100 -24.5 -180t-79.5 -111t-103 -31h-9q-60 2 -110.5 40t-76.5 109.5t-29 172.5zM361 -123l705 1501l76 -1l-705 -1500h-76z" unicode="‰"/>
<glyph glyph-name="minute" d="M269 859l24 72l69 182l75 213q12 34 25.5 59.5t37 39.5t41.5 14l27 -8q26 -8 34 -29.5t8 -36.5q0 -23 -10 -53q-16 -44 -61 -116l-135 -213q-48 -76 -72 -107l-27 -34q-11 -14 -20 -14q-4 0 -10.5 5t-6.5 16q0 5 1 10z" unicode="′"/>
<glyph glyph-name="second" d="M447 857l25 72l69 183l75 213q12 34 25.5 59t37 39t41.5 14l26 -8q27 -8 35 -29.5t8 -36.5q0 -23 -10 -52q-16 -45 -102.5 -181t-114 -182t-51.5 -74l-28 -33q-11 -13 -20 -13q-4 0 -13 6t-3 23zM166 857l24 72l69 183l75 213q12 34 25.5 59t37 39t41.5 14l26 -8 q27 -8 35 -29.5t8 -36.5q0 -23 -10 -52q-16 -45 -105 -185t-114.5 -181.5t-48.5 -70.5l-27 -33q-11 -14 -20 -14q-4 0 -10.5 5t-6.5 16q0 4 1 9z" unicode="″"/>
<glyph glyph-name="arrowleft" d="M1646 669v-108h-979l80 -130q20 -34 20 -54q0 -13 -8 -20t-19 -7q-16 0 -37 17l-317 249l304 246q33 26 52 26q10 0 17 -8t7 -21q0 -16 -13 -38l-91 -152h984z" unicode="←"/>
<glyph glyph-name="arrowup" d="M1069 -20h-108v978l-130 -80q-33 -21 -53 -21q-12 0 -19 8t-7 19q0 16 16 38l248 317l247 -304q26 -33 26 -52q0 -10 -8.5 -17.5t-21.5 -7.5q-16 0 -38 14l-152 91v-983z" unicode="↑"/>
<glyph glyph-name="arrowright" d="M388 563v107h978l-80 130q-21 33 -21 53q0 12 8.5 19.5t19.5 7.5q16 0 37 -16l318 -249l-304 -246q-33 -27 -53 -27q-10 0 -17.5 8.5t-7.5 21.5q0 17 14 39l91 152h-983z" unicode="→"/>
<glyph glyph-name="arrowdown" d="M966 1221h107v-979l130 80q33 20 53 20q13 0 20 -8.5t7 -18.5q0 -16 -16 -37l-249 -317l-246 303q-27 33 -27 52q0 10 8 17.5t21 7.5q16 0 39 -13l153 -91v984z" unicode="↓"/>
<glyph glyph-name="element" d="M1337 1317l-1 -90q-43 -4 -95.5 -10t-138 -33.5t-175 -107t-136 -181t-54.5 -199.5l-4 -40h604v-85h-604q2 -26 12 -110t89.5 -204t217.5 -186t237 -66h6h41l1 -84q-48 1 -117.5 6t-180.5 50t-205.5 135t-145.5 214.5t-52 262.5q0 132 29.5 247t122 231.5t200.5 169.5 t261 70z" unicode="∈"/>
<glyph glyph-name="product" d="M1661 -75h-523v49q25 -1 56 1t56 22.5t34 43.5t9 73v1059q0 48 -15 76.5t-48 45t-105 16.5h-241q-74 0 -99 -22.5t-35 -49t-10 -77.5v-1048q0 -44 26.5 -87.5t46.5 -43.5h2l99 -9v-49h-508v49q31 -2 57 0.5t51.5 18t37.5 39t12 66.5v1056q0 56 -14.5 85t-41 50.5 t-72.5 21.5h-38v53h1246v-53h-21q-31 0 -62 -2.5t-51 -21t-30 -45t-10 -62.5v-1068q0 -54 13 -73.5t46 -39.5t85 -22l47 -3v-49z" unicode="∏"/>
<glyph glyph-name="summation" d="M499 1363h1024v-338h-44q-5 29 -12 60t-28.5 79t-60 83t-97 45t-109.5 10h-442l399 -568l-455 -693h533q70 0 122 18t97 55t80 90.5t50 110.5l17 61l42 1l-70 -448h-1013l459 709z" unicode="∑"/>
<glyph glyph-name="radical" d="M205 514l293 143l287 -535l998 1193l65 -10l-1122 -1354l-322 577l-161 -78z" unicode="√"/>
<glyph glyph-name="proportional" d="M1057 623q-31 35 -70.5 76.5t-105 74t-135.5 32.5h-16q-91 -6 -143 -58t-53 -127q0 -73 51 -125t145 -57q11 -1 21 -1q75 0 151 40t121 101zM1131 704q34 37 76 78t107.5 75.5t149 47t133.5 12.5h7l41 -1l-26 -116q-31 6 -63.5 10.5t-42.5 4.5q-51 0 -129 -37t-123 -94 l-51 -61q27 -36 64.5 -76.5t109 -72.5t137.5 -32q28 0 58 5l42 6l24 -116q-28 -2 -55.5 -1.5t-102 10t-154.5 39t-115 67.5l-87 83q-38 -42 -86 -88.5t-127.5 -81.5t-174.5 -35q-19 0 -89 4.5t-149.5 85.5t-79.5 200q0 5 2 71t89.5 145t209.5 79q3 0 68 -1t148.5 -48 t141.5 -111z" unicode="∝"/>
<glyph glyph-name="infinity" d="M1077 618q26 -40 56 -79.5t84.5 -75t114.5 -35.5q8 0 16 1q83 5 132.5 63.5t49.5 136.5q0 74 -54 125t-134 54h-3q-68 0 -132 -38.5t-94 -91.5zM944 618q-53 82 -109.5 135t-97.5 53l-42 1q-81 0 -136 -56t-54 -133q0 -79 53.5 -132.5t92.5 -55.5t44 -2q68 0 133 48 q52 38 86 94zM1012 722q9 14 18 25.5t45 55t100.5 78t160.5 34.5q15 0 82 -3.5t145 -94.5t78 -196q-1 -122 -89 -209.5t-204 -92.5h-18q-87 0 -163 46.5t-112 97.5l-44 57q-23 -30 -57 -72.5t-100.5 -85.5t-164.5 -43q-12 0 -75.5 3t-139.5 90t-76 202q0 129 85 212.5 t204 89.5h15q85 0 157 -42.5t118 -104.5z" unicode="∞"/>
<glyph glyph-name="angle" d="M337 -36l1305 1324l81 -80l-1140 -1146h1072v-98h-1318z" unicode="∠"/>
<glyph glyph-name="logicaland" d="M450 -28l516 1291h108l547 -1291h-115l-486 1141l-457 -1141h-113z" unicode="∧"/>
<glyph glyph-name="logicalor" d="M1594 1268l-517 -1290h-107l-547 1290l115 1l486 -1143l457 1142h113z" unicode="∨"/>
<glyph glyph-name="intersection" d="M1485 -46h-108v591q0 119 -5.5 225t-44.5 203t-114.5 151.5t-190.5 54.5q-129 -1 -203.5 -62t-107.5 -158.5t-37.5 -197.5t-4.5 -216v-591h-107v591q0 152 4 259.5t54 234t155 184t243 57.5h5q167 -2 264 -68.5t142 -180t50.5 -224t5.5 -259.5v-594z" unicode="∩"/>
<glyph glyph-name="union" d="M565 1299h107v-592q0 -121 5 -227t44 -202.5t115 -150.5t137.5 -54.5t62.5 -0.5q121 0 202 68q66 55 99 152.5t38 197.5t5 217v592h108v-592q0 -134 -5 -252t-54.5 -243t-155 -182.5t-238.5 -57.5h-9q-165 1 -263 67.5t-144 180.5t-50 216t-4 268v595z" unicode="∪"/>
<glyph glyph-name="therefore" d="M1421.5 314.5q31.5 35.5 56.5 36t26 0.5q49 0 82.5 -34.5t32.5 -83.5q-2 -48 -36.5 -83.5t-59 -36t-25.5 -0.5q-48 0 -78 36t-30 81q0 49 31.5 84.5zM434 228q0 47 31 81.5t56 35t26 0.5q49 0 82.5 -34t33.5 -83q-1 -48 -36 -83.5t-59.5 -36t-25.5 -0.5q-48 0 -78 36.5 t-30 83.5zM946 1121q32 36 56 37h26q48 0 82.5 -34.5t33.5 -83.5q-2 -47 -36.5 -82.5t-59.5 -35.5l-25 -1q-48 0 -78.5 36.5t-30.5 79.5q0 48 32 84z" unicode="∴"/>
<glyph glyph-name="approxequal" d="M552 378q31 55 58.5 93.5t81.5 76t126 37.5h4q46 -1 109.5 -26t156 -70t137.5 -45h9q40 3 80.5 33t63.5 69l30 49l83 -46q-15 -27 -46.5 -80t-98 -91.5t-126.5 -38.5h-6q-46 0 -91 18t-154 69t-155 51h-2q-51 -2 -88.5 -30.5t-70.5 -82.5l-19 -31zM552 677q31 54 59 93 t81.5 76.5t125.5 37.5h4q46 -1 104 -24t155.5 -70t143.5 -47h9q40 3 80.5 33t63.5 69l30 49l83 -46q-15 -27 -46.5 -80t-97.5 -91.5t-127 -38.5h-6q-46 0 -96 19t-154.5 69t-149.5 50h-2q-51 -2 -87 -29t-72 -85l-19 -30z" unicode="≈"/>
<glyph glyph-name="notequal" d="M443 830l620 1l150 287l114 -59l-123 -228h389v-110h-447l-108 -202h555l1 -107l-613 -2l-162 -306l-111 63l128 243l-392 1v108h448l110 202l-559 -1v110z" unicode="≠"/>
<glyph glyph-name="equivalence" d="M1651 410v-107h-1235v107h1235zM1651 673v-108h-1235v108h1235zM1651 944v-107h-1235v107h1235z" unicode="≡"/>
<glyph glyph-name="lessequal" d="M524 544l987 -514v-126l-987 516v124zM524 769l970 552l1 -124l-854 -484l869 -449l1 -129l-987 523v111z" unicode="≤"/>
<glyph glyph-name="greaterequal" d="M502 44l987 537v-125l-987 -538v126zM1488 698l-986 -540v121l869 475l-870 449v130l986 -523z" unicode="≥"/>
<glyph glyph-name="perpendicular" d="M961 88l1 1197l116 1v-1198h536l1 -108l-1181 -1v109h527z" unicode="⊥"/>
</font>
</defs>
</svg>
